<?xml version="1.0" encoding="utf-8"?>
<!-- Generator: Adobe Illustrator 27.2.0, SVG Export Plug-In . SVG Version: 6.00 Build 0)  -->
<svg version="1.1" id="Layer_1" xmlns="http://www.w3.org/2000/svg" xmlns:xlink="http://www.w3.org/1999/xlink" x="0px" y="0px"
	 viewBox="0 0 1920 618.4" style="enable-background:new 0 0 1920 618.4;" xml:space="preserve">
<style type="text/css">
	.st0{fill:#96C28F;}
	.st1{fill:#383838;}
	.st2{fill:#FFFFF6;}
	.st3{fill:#313131;}
	.st4{fill:#80B578;}
	.st5{fill:#6E9F65;}
	.st6{fill:#2D8700;}
</style>
<path class="st0" d="M369.8,519.1L0,544.4V280.1C316.5,313.5,360.4,438.7,369.8,519.1z"/>
<g>
	<path class="st1" d="M1903.7,618.4H826.9c0.2-1.7,0.4-3.4,0.6-5.1c0.2-1.7,0.4-3.4,0.6-5.1c0.1-0.9,0.2-1.8,0.4-2.7
		c0.1-0.7,0.2-1.5,0.3-2.2c0-0.1,0-0.3,0.1-0.4c0.1-0.9,0.3-1.9,0.4-2.8c0.1-0.5,0.2-1,0.2-1.5c0.1-0.9,0.3-1.9,0.4-2.8
		c0-0.3,0.1-0.6,0.1-0.9c0-0.1,0-0.2,0-0.3c0.3-1.8,0.6-3.6,0.9-5.4c0.3-1.8,0.6-3.6,1-5.4c0.2-1.4,0.5-2.7,0.8-4.1
		c0.2-1.3,0.5-2.6,0.8-3.9c0.2-0.9,0.4-1.9,0.6-2.8c0.2-1.1,0.5-2.3,0.7-3.4c0.5-2.2,1-4.3,1.4-6.4c0.4-1.8,0.8-3.6,1.3-5.4
		c0.3-1.4,0.7-2.8,1-4.2c0.3-1.3,0.6-2.5,1-3.8v0c0.3-1.3,0.7-2.5,1-3.8c0.5-1.7,0.9-3.3,1.4-5c0.4-1.5,0.9-3.1,1.3-4.6
		c0.4-1.4,0.8-2.8,1.2-4.2c0.3-1.2,0.7-2.3,1-3.4c0.2-0.5,0.3-1,0.5-1.6c0.3-0.9,0.6-1.8,0.8-2.7c0.4-1.3,0.8-2.7,1.3-4
		c0.4-1.4,0.9-2.8,1.4-4.2c0.8-2.5,1.7-4.9,2.5-7.3c0.5-1.4,1-2.7,1.5-4.1c0.6-1.6,1.2-3.2,1.8-4.9c0.1-0.2,0.2-0.5,0.3-0.7
		c0.6-1.6,1.2-3.2,1.8-4.7c0.7-1.7,1.3-3.4,2-5.1c0.9-2.2,1.8-4.5,2.7-6.7c0.4-1,0.8-1.9,1.2-2.9c0.8-2,1.7-4,2.6-6.1
		c0.7-1.5,1.3-3.1,2-4.6c1.3-3.1,2.7-6.1,4.1-9.1c0.3-0.6,0.5-1.1,0.8-1.7c0.6-1.4,1.3-2.8,2-4.2c0.7-1.5,1.4-3,2.2-4.5
		c0.1-0.2,0.2-0.5,0.3-0.7c0.8-1.5,1.5-3.1,2.3-4.6c0.8-1.6,1.6-3.1,2.4-4.7c0.9-1.7,1.8-3.5,2.7-5.2c0.8-1.6,1.6-3.2,2.5-4.7
		c0.9-1.6,1.7-3.2,2.6-4.8c0.9-1.6,1.8-3.2,2.6-4.8c0.9-1.7,1.9-3.4,2.9-5.1c0.8-1.5,1.7-3,2.5-4.4c0.8-1.5,1.7-2.9,2.5-4.4
		c1-1.7,2-3.4,3-5c0.7-1.2,1.4-2.4,2.1-3.5c2.1-3.5,4.3-7,6.5-10.5c1-1.5,1.9-3.1,2.9-4.6c1-1.5,2-3.1,3-4.6c0.6-1,1.3-1.9,1.9-2.9
		c1.6-2.4,3.1-4.7,4.7-7.1c0.8-1.2,1.7-2.5,2.5-3.7c1-1.5,2-2.9,3-4.4c0.4-0.6,0.8-1.1,1.2-1.7c0.8-1.2,1.6-2.3,2.4-3.5
		c0.9-1.3,1.8-2.6,2.8-3.8c1.1-1.5,2.1-2.9,3.2-4.4c1-1.4,2.1-2.8,3.1-4.2c0-0.1,0.1-0.1,0.1-0.2c12.2-16.6,25.1-32.6,38.4-48.1
		c64.3-74.9,139-137.1,205.4-184.7c0.7-0.5,1.4-1,2-1.5c1.3-0.9,2.6-1.8,3.9-2.7c1.3-0.9,2.5-1.8,3.8-2.7c2.5-1.8,5.1-3.6,7.6-5.3
		c1.3-0.9,2.5-1.8,3.8-2.6c2.5-1.7,4.9-3.4,7.4-5.1c2.5-1.7,5-3.4,7.4-5c1.2-0.8,2.4-1.6,3.7-2.5c1.2-0.8,2.4-1.6,3.6-2.4
		c2.4-1.6,4.8-3.2,7.1-4.7c2.4-1.5,4.7-3.1,7-4.6c1.2-0.8,2.3-1.5,3.5-2.2c1.2-0.7,2.3-1.5,3.4-2.2c2.8-1.8,5.6-3.6,8.4-5.3
		c5-3.2,9.9-6.2,14.6-9.1c0.9-0.6,1.9-1.2,2.8-1.7c1.2-0.7,2.3-1.4,3.4-2.1c1-0.6,2.1-1.2,3.1-1.9c2-1.2,4-2.4,6-3.6
		c0.5-0.3,1-0.6,1.5-0.9c0.5-0.3,1-0.6,1.5-0.9c1-0.6,1.9-1.1,2.9-1.7c7.2-4.3,14-8.2,20.3-11.8c1.3-0.7,2.6-1.5,3.9-2.2
		c0.2-0.1,0.5-0.3,0.8-0.4c0.7-0.4,1.4-0.8,2.1-1.2c0,0,0.1-0.1,0.2-0.1c0.7-0.4,1.5-0.8,2.2-1.2c2.9-1.6,5.7-3.1,8.3-4.6
		c0.6-0.3,1.2-0.7,1.8-1c0.3-0.2,0.7-0.4,1-0.5c0.7-0.4,1.3-0.7,2-1.1c1.9-1,3.8-2,5.6-3c0.6-0.3,1.2-0.6,1.7-0.9
		c1-0.5,2-1.1,2.9-1.5c0.7-0.4,1.4-0.8,2.1-1.1c0.1-0.1,0.2-0.1,0.3-0.2c0.4-0.2,0.8-0.4,1.1-0.6c1.2-0.6,2.3-1.2,3.4-1.7
		c0.6-0.3,1.1-0.6,1.6-0.8c0.1-0.1,0.2-0.1,0.3-0.2c0.3-0.2,0.6-0.3,0.9-0.5c0,0,0.1,0,0.1-0.1c0.4-0.2,0.9-0.4,1.3-0.6
		c0.7-0.3,1.3-0.6,1.8-0.9c0.6-0.3,1.2-0.6,1.8-0.9c1.3-0.6,2.2-1.1,2.7-1.3c0.1-0.1,0.2-0.1,0.3-0.1c0.1-0.1,0.2-0.1,0.2-0.1
		s0.2,0.1,0.5,0.2c0.1,0.1,0.2,0.1,0.3,0.2c0.5,0.2,1.2,0.6,2.2,1.1c0.1,0.1,0.2,0.1,0.4,0.2c0.3,0.1,0.6,0.3,0.9,0.5
		c0.3,0.1,0.5,0.3,0.8,0.4c0.2,0.1,0.4,0.2,0.5,0.3c0.4,0.2,0.8,0.4,1.3,0.7c0.4,0.2,0.7,0.4,1.1,0.5c3,1.5,6.9,3.6,11.6,6
		c0.3,0.2,0.7,0.3,1,0.5c0.3,0.2,0.7,0.4,1,0.5c0.7,0.4,1.4,0.7,2.1,1.1c0.4,0.2,0.7,0.4,1.1,0.6c0.2,0.1,0.5,0.2,0.7,0.4
		c0.1,0.1,0.3,0.1,0.4,0.2c0.4,0.2,0.8,0.4,1.1,0.6c0.4,0.2,0.8,0.4,1.1,0.6c0.4,0.2,0.8,0.4,1.1,0.6c1.2,0.7,2.4,1.3,3.7,2
		c0.4,0.2,0.8,0.5,1.3,0.7c3,1.6,6.1,3.4,9.4,5.2c0.9,0.5,1.9,1,2.8,1.6c0.7,0.4,1.3,0.8,2,1.1c0.8,0.5,1.6,0.9,2.5,1.4
		c2,1.2,4.1,2.3,6.3,3.6c0.5,0.3,1,0.6,1.5,0.9c1.1,0.6,2.1,1.2,3.2,1.9c0.8,0.5,1.6,1,2.5,1.4c0.3,0.2,0.5,0.3,0.8,0.5
		c1.4,0.8,2.8,1.6,4.2,2.5c1.7,1,3.4,2,5.2,3.1c7.5,4.5,15.4,9.3,23.8,14.5c1,0.6,2.1,1.3,3.1,1.9c1,0.6,1.9,1.2,2.9,1.8
		c2.5,1.6,5.1,3.2,7.7,4.9c1.2,0.7,2.4,1.5,3.6,2.3c6,3.8,12.1,7.8,18.4,12c1.2,0.8,2.4,1.6,3.7,2.4c1.2,0.8,2.5,1.7,3.7,2.5
		c1.2,0.8,2.5,1.7,3.7,2.5c1.2,0.8,2.5,1.7,3.8,2.5c1.5,1,2.9,2,4.4,3c4.9,3.3,9.8,6.8,14.8,10.3c1.3,0.9,2.6,1.8,3.9,2.8
		c2.3,1.6,4.6,3.3,7,5c70.2,50.3,149.8,117,216.4,197.8c9.4,11.4,18.6,23.1,27.4,35.1c0,0.1,0.1,0.1,0.1,0.2c1,1.4,2.1,2.8,3.1,4.2
		c0.9,1.2,1.8,2.5,2.7,3.7c1.5,2.1,3,4.2,4.5,6.4c0.8,1.1,1.5,2.2,2.3,3.3c1,1.5,2.1,3,3.1,4.5s2.1,3,3.1,4.5c1,1.5,2,3,3,4.5
		c1.7,2.5,3.3,5,4.9,7.6c0.7,1.1,1.4,2.2,2.1,3.3c1.7,2.7,3.4,5.4,5.1,8.1c1.6,2.6,3.2,5.1,4.7,7.7h0c0.2,0.4,0.4,0.7,0.6,1.1
		c1,1.7,2,3.4,3,5c0.9,1.5,1.7,2.9,2.5,4.4c0.5,0.9,1.1,1.8,1.6,2.8c0.3,0.5,0.6,1.1,0.9,1.7c1,1.7,1.9,3.4,2.9,5.1
		c0.9,1.6,1.8,3.2,2.6,4.8c0.9,1.6,1.7,3.2,2.6,4.8c0.8,1.6,1.7,3.1,2.5,4.7c1.9,3.6,3.7,7.2,5.5,10.9c0.6,1.2,1.2,2.4,1.7,3.5
		c0.1,0.3,0.3,0.5,0.4,0.8c0.7,1.5,1.5,3,2.2,4.5c0.7,1.4,1.3,2.8,1.9,4.2c0.3,0.5,0.5,1.1,0.8,1.7c1.4,3,2.8,6.1,4.1,9.1
		c0.7,1.5,1.3,3.1,2,4.6c0.9,2,1.7,4,2.6,6.1c0.4,1,0.8,2,1.2,2.9c0.9,2.2,1.8,4.5,2.7,6.7c0.7,1.7,1.3,3.4,2,5.1
		c0.6,1.6,1.2,3.1,1.8,4.7c0.1,0.2,0.2,0.5,0.3,0.7c0.6,1.6,1.2,3.2,1.8,4.9c0.5,1.4,1,2.7,1.5,4.1c0.9,2.4,1.7,4.9,2.5,7.3
		c0.5,1.4,0.9,2.8,1.4,4.2c0.4,1.3,0.9,2.7,1.3,4c0.3,0.9,0.6,1.8,0.8,2.7c0.2,0.5,0.3,1.1,0.5,1.6c0.4,1.1,0.7,2.3,1.1,3.4
		c0.4,1.4,0.8,2.8,1.2,4.2c0.4,1.5,0.9,3.1,1.3,4.6c0.5,1.7,0.9,3.4,1.4,5c0.3,1.3,0.7,2.5,1,3.8v0c0.3,1.3,0.7,2.5,1,3.8
		c0.4,1.4,0.7,2.8,1,4.2c0.4,1.8,0.9,3.6,1.3,5.4c0.5,2.1,1,4.3,1.4,6.4c0.2,1.1,0.5,2.3,0.7,3.4c0.3,1.2,0.5,2.4,0.8,3.6
		c0.3,1.4,0.6,2.8,0.8,4.1c0.9,4.7,1.8,9.4,2.5,14.2c0.1,0.3,0.1,0.6,0.1,0.9c0.2,0.9,0.3,1.8,0.4,2.8c0.1,0.5,0.2,1,0.2,1.5
		c0.1,0.9,0.3,1.8,0.4,2.8c0.1,0.9,0.3,1.8,0.4,2.7c0.1,0.9,0.2,1.8,0.4,2.7c0.2,1.7,0.4,3.4,0.7,5.1
		C1903.3,615,1903.5,616.7,1903.7,618.4z"/>
	<path class="st2" d="M1544.1,109.2l-55.8,38.7l-61.6-42.8l-61.6,42.8l-61.6-42.8L1242,148l-55.6-38.7
		C1285.1,38.5,1365.3,0,1365.3,0S1445.4,38.5,1544.1,109.2z"/>
	<path class="st3" d="M1903.7,618.4H826.9c0.2-1.7,0.4-3.4,0.6-5.1c0.2-1.7,0.4-3.4,0.6-5.1c0.1-0.9,0.2-1.8,0.4-2.7
		c0.1-0.7,0.2-1.5,0.3-2.2c0-0.1,0-0.3,0.1-0.4c0.1-0.9,0.3-1.9,0.4-2.8c0.1-0.5,0.2-1,0.2-1.5c0.1-0.9,0.3-1.9,0.4-2.8
		c0-0.3,0.1-0.6,0.1-0.9c0-0.1,0-0.2,0-0.3c0.3-1.8,0.6-3.6,0.9-5.4c0.3-1.8,0.6-3.6,1-5.4c0.2-1.4,0.5-2.7,0.8-4.1
		c0.2-1.3,0.5-2.6,0.8-3.9c0.2-0.9,0.4-1.9,0.6-2.8c0.2-1.1,0.5-2.3,0.7-3.4c0.5-2.2,1-4.3,1.4-6.4c0.4-1.8,0.8-3.6,1.3-5.4
		c0.3-1.4,0.7-2.8,1-4.2c0.3-1.3,0.6-2.5,1-3.8v0c0.3-1.3,0.7-2.5,1-3.8c0.5-1.7,0.9-3.3,1.4-5c0.4-1.5,0.9-3.1,1.3-4.6
		c0.4-1.4,0.8-2.8,1.2-4.2c0.3-1.2,0.7-2.3,1-3.4c0.2-0.5,0.3-1,0.5-1.6c0.3-0.9,0.6-1.8,0.8-2.7c0.4-1.3,0.8-2.7,1.3-4
		c0.4-1.4,0.9-2.8,1.4-4.2c0.8-2.5,1.7-4.9,2.5-7.3c0.5-1.4,1-2.7,1.5-4.1c0.6-1.6,1.2-3.2,1.8-4.9c0.1-0.2,0.2-0.5,0.3-0.7
		c0.6-1.6,1.2-3.2,1.8-4.7c0.7-1.7,1.3-3.4,2-5.1c0.9-2.2,1.8-4.5,2.7-6.7c0.4-1,0.8-1.9,1.2-2.9c0.8-2,1.7-4,2.6-6.1
		c0.7-1.5,1.3-3.1,2-4.6c1.3-3.1,2.7-6.1,4.1-9.1c0.3-0.6,0.5-1.1,0.8-1.7c0.6-1.4,1.3-2.8,2-4.2c0.7-1.5,1.4-3,2.2-4.5
		c0.1-0.2,0.2-0.5,0.3-0.7c0.8-1.5,1.5-3.1,2.3-4.6c0.8-1.6,1.6-3.1,2.4-4.7c0.9-1.7,1.8-3.5,2.7-5.2c0.8-1.6,1.6-3.2,2.5-4.7
		c0.9-1.6,1.7-3.2,2.6-4.8c0.9-1.6,1.8-3.2,2.6-4.8c0.9-1.7,1.9-3.4,2.9-5.1c0.8-1.5,1.7-3,2.5-4.4c0.8-1.5,1.7-2.9,2.5-4.4
		c1-1.7,2-3.4,3-5c0.7-1.2,1.4-2.4,2.1-3.5c2.1-3.5,4.3-7,6.5-10.5c1-1.5,1.9-3.1,2.9-4.6c1-1.5,2-3.1,3-4.6c0.6-1,1.3-1.9,1.9-2.9
		c1.6-2.4,3.1-4.7,4.7-7.1c0.8-1.2,1.7-2.5,2.5-3.7c1-1.5,2-2.9,3-4.4c0.4-0.6,0.8-1.1,1.2-1.7c0.8-1.2,1.6-2.3,2.4-3.5
		c0.9-1.3,1.8-2.6,2.8-3.8c1.1-1.5,2.1-2.9,3.2-4.4c1-1.4,2.1-2.8,3.1-4.2c0-0.1,0.1-0.1,0.1-0.2c12.2-16.6,25.1-32.6,38.4-48.1
		L1377,342h282.4l101.1-35.1c9.4,11.4,18.6,23.1,27.4,35.1c0,0.1,0.1,0.1,0.1,0.2c1,1.4,2.1,2.8,3.1,4.2c0.9,1.2,1.8,2.5,2.7,3.7
		c1.5,2.1,3,4.2,4.5,6.4c0.8,1.1,1.5,2.2,2.3,3.3c1,1.5,2.1,3,3.1,4.5s2.1,3,3.1,4.5c1,1.5,2,3,3,4.5c1.7,2.5,3.3,5,4.9,7.6
		c0.7,1.1,1.4,2.2,2.1,3.3c1.7,2.7,3.4,5.4,5.1,8.1c1.6,2.6,3.2,5.1,4.7,7.7h0c0.2,0.4,0.4,0.7,0.6,1.1c1,1.7,2,3.4,3,5
		c0.9,1.5,1.7,2.9,2.5,4.4c0.5,0.9,1.1,1.8,1.6,2.8c0.3,0.5,0.6,1.1,0.9,1.7c1,1.7,1.9,3.4,2.9,5.1c0.9,1.6,1.8,3.2,2.6,4.8
		c0.9,1.6,1.7,3.2,2.6,4.8c0.8,1.6,1.7,3.1,2.5,4.7c1.9,3.6,3.7,7.2,5.5,10.9c0.6,1.2,1.2,2.4,1.7,3.5c0.1,0.3,0.3,0.5,0.4,0.8
		c0.7,1.5,1.5,3,2.2,4.5c0.7,1.4,1.3,2.8,1.9,4.2c0.3,0.5,0.5,1.1,0.8,1.7c1.4,3,2.8,6.1,4.1,9.1c0.7,1.5,1.3,3.1,2,4.6
		c0.9,2,1.7,4,2.6,6.1c0.4,1,0.8,2,1.2,2.9c0.9,2.2,1.8,4.5,2.7,6.7c0.7,1.7,1.3,3.4,2,5.1c0.6,1.6,1.2,3.1,1.8,4.7
		c0.1,0.2,0.2,0.5,0.3,0.7c0.6,1.6,1.2,3.2,1.8,4.9c0.5,1.4,1,2.7,1.5,4.1c0.9,2.4,1.7,4.9,2.5,7.3c0.5,1.4,0.9,2.8,1.4,4.2
		c0.4,1.3,0.9,2.7,1.3,4c0.3,0.9,0.6,1.8,0.8,2.7c0.2,0.5,0.3,1.1,0.5,1.6c0.4,1.1,0.7,2.3,1.1,3.4c0.4,1.4,0.8,2.8,1.2,4.2
		c0.4,1.5,0.9,3.1,1.3,4.6c0.5,1.7,0.9,3.4,1.4,5c0.3,1.3,0.7,2.5,1,3.8v0c0.3,1.3,0.7,2.5,1,3.8c0.4,1.4,0.7,2.8,1,4.2
		c0.4,1.8,0.9,3.6,1.3,5.4c0.5,2.1,1,4.3,1.4,6.4c0.2,1.1,0.5,2.3,0.7,3.4c0.3,1.2,0.5,2.4,0.8,3.6c0.3,1.4,0.6,2.8,0.8,4.1
		c0.9,4.7,1.8,9.4,2.5,14.2c0.1,0.3,0.1,0.6,0.1,0.9c0.2,0.9,0.3,1.8,0.4,2.8c0.1,0.5,0.2,1,0.2,1.5c0.1,0.9,0.3,1.8,0.4,2.8
		c0.1,0.9,0.3,1.8,0.4,2.7c0.1,0.9,0.2,1.8,0.4,2.7c0.2,1.7,0.4,3.4,0.7,5.1C1903.3,615,1903.5,616.7,1903.7,618.4z"/>
</g>
<path class="st4" d="M1269.4,618.4H0v-95.6c99.3-134.4,262.7-262.2,524.7-262.2c155.2,0,291.1,40,406.4,97.5
	c100.7,50.2,185.6,113.8,253.8,175.9c23.1,21,44.3,41.8,63.5,61.8C1255.7,603.5,1262.7,611,1269.4,618.4z"/>
<path class="st5" d="M1920,396.5v221.9H973.2c16.7-7.5,34-15,51.8-22.5c49.5-20.9,103-41.8,159.9-61.8
	c183.6-64.5,403.3-119.5,641.8-134h0C1857.5,398.2,1888.6,397,1920,396.5z"/>
<g>
	<g>
		<rect y="595.9" class="st6" width="1920" height="22.5"/>
	</g>
	<path class="st6" d="M0,601.1c0,0,17-27.3,51.1-27.3c0,0-44.5,17.9-44.5,27.3H0z"/>
	<path class="st6" d="M240.4,595.9c0,0,17-27.3,51.1-27.3c0,0-44.5,17.9-44.5,27.3H240.4z"/>
	<path class="st6" d="M625.3,595.9c0,0,17-27.3,51.1-27.3c0,0-44.5,17.9-44.5,27.3H625.3z"/>
	<path class="st6" d="M742.8,595.9c0,0,17-27.3,51.1-27.3c0,0-44.5,17.9-44.5,27.3H742.8z"/>
	<path class="st6" d="M1139.3,595.9c0,0,17-27.3,51.1-27.3c0,0-44.5,17.9-44.5,27.3H1139.3z"/>
	<path class="st6" d="M1586.9,595.9c0,0,17-27.3,51.1-27.3c0,0-44.5,17.9-44.5,27.3H1586.9z"/>
	<path class="st6" d="M1712.6,595.9c0,0,17-27.3,51.1-27.3c0,0-44.5,17.9-44.5,27.3H1712.6z"/>
	<polygon class="st6" points="73.8,600.1 67.2,585.1 60.5,600.1 	"/>
	<polygon class="st6" points="57.7,595.9 51.1,581 44.4,595.9 	"/>
	<polygon class="st6" points="64.4,603.4 57.7,588.4 51.1,603.4 	"/>
	<polygon class="st6" points="155.4,600.1 148.7,585.1 142.1,600.1 	"/>
	<polygon class="st6" points="139.3,595.9 132.7,581 126,595.9 	"/>
	<polygon class="st6" points="146,603.4 139.3,588.4 132.7,603.4 	"/>
	<polygon class="st6" points="283.5,600.1 276.9,585.1 270.2,600.1 	"/>
	<polygon class="st6" points="267.4,595.9 260.8,581 254.1,595.9 	"/>
	<polygon class="st6" points="274.1,603.4 267.4,588.4 260.8,603.4 	"/>
	<polygon class="st6" points="392.5,600.1 385.9,585.1 379.2,600.1 	"/>
	<polygon class="st6" points="376.5,595.9 369.8,581 363.2,595.9 	"/>
	<polygon class="st6" points="383.1,603.4 376.5,588.4 369.8,603.4 	"/>
	<polygon class="st6" points="534.1,600.1 527.5,585.1 520.8,600.1 	"/>
	<polygon class="st6" points="518.1,595.9 511.4,581 504.8,595.9 	"/>
	<polygon class="st6" points="524.7,603.4 518.1,588.4 511.4,603.4 	"/>
	<polygon class="st6" points="683.4,600.1 676.8,585.1 670.1,600.1 	"/>
	<polygon class="st6" points="667.3,595.9 660.7,581 654,595.9 	"/>
	<polygon class="st6" points="674,603.4 667.3,588.4 660.7,603.4 	"/>
	<polygon class="st6" points="846.7,600.1 840.1,585.1 833.4,600.1 	"/>
	<polygon class="st6" points="830.6,595.9 824,581 817.3,595.9 	"/>
	<polygon class="st6" points="837.3,603.4 830.6,588.4 824,603.4 	"/>
	<polygon class="st6" points="902.7,600.1 896.1,585.1 889.4,600.1 	"/>
	<polygon class="st6" points="886.7,595.9 880,581 873.3,595.9 	"/>
	<polygon class="st6" points="893.3,603.4 886.7,588.4 880,603.4 	"/>
	<polygon class="st6" points="1095.6,600.1 1089,585.1 1082.3,600.1 	"/>
	<polygon class="st6" points="1079.6,595.9 1072.9,581 1066.3,595.9 	"/>
	<polygon class="st6" points="1086.2,603.4 1079.6,588.4 1072.9,603.4 	"/>
	<polygon class="st6" points="1330.8,600.1 1324.1,585.1 1317.5,600.1 	"/>
	<polygon class="st6" points="1314.7,595.9 1308,581 1301.4,595.9 	"/>
	<polygon class="st6" points="1321.3,603.4 1314.7,588.4 1308,603.4 	"/>
	<polygon class="st6" points="1532,600.1 1525.4,585.1 1518.7,600.1 	"/>
	<polygon class="st6" points="1516,595.9 1509.3,581 1502.7,595.9 	"/>
	<polygon class="st6" points="1522.6,603.4 1516,588.4 1509.3,603.4 	"/>
	<polygon class="st6" points="1707,600.1 1700.4,585.1 1693.7,600.1 	"/>
	<polygon class="st6" points="1690.9,595.9 1684.3,581 1677.6,595.9 	"/>
	<polygon class="st6" points="1697.6,603.4 1690.9,588.4 1684.3,603.4 	"/>
	<polygon class="st6" points="1863.6,600.1 1857,585.1 1850.3,600.1 	"/>
	<polygon class="st6" points="1847.6,595.9 1840.9,581 1834.3,595.9 	"/>
	<polygon class="st6" points="1854.2,603.4 1847.6,588.4 1840.9,603.4 	"/>
	<polygon class="st6" points="1804.6,600.1 1797.9,585.1 1791.3,600.1 	"/>
	<polygon class="st6" points="1788.5,595.9 1781.9,581 1775.2,595.9 	"/>
	<polygon class="st6" points="1795.2,603.4 1788.5,588.4 1781.9,603.4 	"/>
	<polygon class="st6" points="95.7,598.9 89,584 82.3,598.9 	"/>
</g>
</svg>
