<?xml version="1.0" encoding="utf-8"?>
<!-- Generator: Adobe Illustrator 27.2.0, SVG Export Plug-In . SVG Version: 6.00 Build 0)  -->
<svg version="1.1" id="Layer_1" xmlns="http://www.w3.org/2000/svg" xmlns:xlink="http://www.w3.org/1999/xlink" x="0px" y="0px"
	 viewBox="0 0 1080 1080" style="enable-background:new 0 0 1080 1080;" xml:space="preserve">
<style type="text/css">
	.st0{fill:#FFCF4E;}
	.st1{fill:#FFBF33;}
	.st2{fill:#17EEFF;}
	.st3{fill:#FF0000;}
</style>
<g>
	<polyline class="st0" points="238.7,490.2 820.3,259.7 589.8,841.3 	"/>
	<polyline class="st1" points="497,1080 1080,658.2 560.3,678.8 	"/>
	<polyline class="st1" points="0,583 421.8,0 401.2,519.7 	"/>
	
		<rect x="13.2" y="551.2" transform="matrix(0.7071 0.7071 -0.7071 0.7071 612.6489 -48.2853)" class="st1" width="702.9" height="328.4"/>
	<polygon class="st2" points="606.9,567 661.1,512.8 641.3,438.7 567.2,418.9 513,473.1 532.8,547.2 	"/>
	<polygon class="st3" points="797.4,751.6 769.4,723.5 731,733.8 720.8,772.1 748.8,800.1 787.1,789.9 	"/>
	<polygon class="st3" points="356.5,310.6 328.4,282.6 290.1,292.9 279.9,331.2 307.9,359.2 346.2,349 	"/>
</g>
</svg>
