<?xml version="1.0" encoding="utf-8"?>
<!-- Generator: Adobe Illustrator 27.2.0, SVG Export Plug-In . SVG Version: 6.00 Build 0)  -->
<svg version="1.1" id="Layer_1" xmlns="http://www.w3.org/2000/svg" xmlns:xlink="http://www.w3.org/1999/xlink" x="0px" y="0px"
	 viewBox="0 0 36 36" style="enable-background:new 0 0 36 36;" xml:space="preserve">
<style type="text/css">
	.st0{fill:#1E88E5;}
	.st1{fill:#FFFFFF;}
</style>
<path class="st0" d="M36,36H0V0h36V36z"/>
<path class="st1" d="M29.9,11.5L23.4,18l6.5,6.5c0-0.2,0.1-0.3,0.1-0.5V12C30,11.8,30,11.7,29.9,11.5z M20.7,17.9l7.8-7.8
	C28.3,10,28.2,10,28,10H8c-0.2,0-0.3,0-0.5,0.1l7.8,7.8C16.8,19.4,19.2,19.4,20.7,17.9z M18,21c-1.4,0-2.9-0.5-4-1.6l-6.5,6.5
	C7.7,26,7.8,26,8,26h20c0.2,0,0.3,0,0.5-0.1L22,19.4C20.9,20.5,19.4,21,18,21z M6.1,11.5C6,11.7,6,11.8,6,12v12c0,0.2,0,0.3,0.1,0.5
	l6.5-6.5L6.1,11.5z"/>
</svg>
