<?xml version="1.0" encoding="utf-8"?>
<!-- Generator: Adobe Illustrator 27.2.0, SVG Export Plug-In . SVG Version: 6.00 Build 0)  -->
<svg version="1.1" id="Layer_1" xmlns="http://www.w3.org/2000/svg" xmlns:xlink="http://www.w3.org/1999/xlink" x="0px" y="0px"
	 viewBox="0 0 128 128" style="enable-background:new 0 0 128 128;" xml:space="preserve">
<style type="text/css">
	.st0{fill:#FFFFFF;}
	.st1{fill-rule:evenodd;clip-rule:evenodd;fill:#181616;}
	.st2{fill:#181616;}
</style>
<path class="st0" d="M74.8,97.1C77,99,79,102.7,79,108.3c0,8.1-0.1,14.6-0.1,16.6c0,1.6,1.1,3.5,4.2,2.9c0.1,0,0.1-0.1,0.2-0.1
	l-0.2,0.2H44.9l0-0.3c0,0,0,0,0.1,0c3,0.6,4.1-1.3,4.1-2.9c0-1.4-0.1-6.2-0.1-11.2c-16.8,3.7-20.3-7.1-20.3-7.1
	C26,99.6,22,97.7,22,97.7c-5.5-3.8,0.4-3.7,0.4-3.7c6,0.4,9.2,6.2,9.2,6.2c5.4,9.2,14.1,6.5,17.6,5c0.5-3.9,2.1-6.6,3.8-8.1
	c-13.4-1.5-27.5-6.7-27.5-29.8c0-6.6,2.3-12,6.2-16.2c-0.6-1.5-2.7-7.7,0.6-16c0,0,5.1-1.6,16.6,6.2c4.8-1.3,10-2,15.1-2
	c5.1,0,10.3,0.7,15.1,2c11.5-7.8,16.6-6.2,16.6-6.2c3.3,8.3,1.2,14.5,0.6,16c3.9,4.2,6.2,9.6,6.2,16.2
	C102.5,90.5,88.3,95.6,74.8,97.1z"/>
<path class="st1" d="M124.4,70.6c0,26.7-17.3,49.3-41.3,57.3c-3.1,0.6-4.2-1.3-4.2-2.9c0-2,0.1-8.5,0.1-16.6c0-5.6-1.9-9.3-4.1-11.2
	c13.5-1.5,27.6-6.6,27.6-29.8c0-6.6-2.3-12-6.2-16.2c0.6-1.5,2.7-7.7-0.6-16c0,0-5.1-1.6-16.6,6.2c-4.8-1.3-10-2-15.1-2
	s-10.3,0.7-15.1,2c-11.5-7.8-16.6-6.2-16.6-6.2c-3.3,8.3-1.2,14.5-0.6,16c-3.9,4.2-6.2,9.6-6.2,16.2c0,23.1,14.1,28.3,27.5,29.8
	c-1.7,1.5-3.3,4.2-3.8,8.1c-3.5,1.5-12.2,4.2-17.6-5c0,0-3.2-5.8-9.2-6.2c0,0-5.9-0.1-0.4,3.7c0,0,4,1.9,6.7,8.8
	c0,0,3.5,10.8,20.3,7.1c0,5,0.1,9.8,0.1,11.2c0,1.6-1.1,3.5-4.1,2.9c-24-8-41.3-30.6-41.3-57.3c0-33.3,27-60.4,60.4-60.4
	S124.4,37.2,124.4,70.6z"/>
<path class="st2" d="M47.2,107.3c-0.7,0.1-1.2,0.6-1.1,1.1c0.1,0.5,0.7,0.8,1.4,0.7c0.7-0.1,1.2-0.6,1.1-1.1
	C48.5,107.5,47.9,107.2,47.2,107.3z M42.7,107.9c-0.7,0-1.3,0.4-1.3,0.9s0.6,0.9,1.3,0.9s1.3-0.4,1.3-0.9
	C44,108.3,43.4,107.9,42.7,107.9z M38.1,107.2c-0.7-0.2-1.4,0-1.5,0.5s0.3,1,1,1.2s1.4,0,1.5-0.5C39.2,107.9,38.8,107.4,38.1,107.2z
	 M34.2,104.9c-0.5-0.5-1.2-0.6-1.6-0.2c-0.3,0.4-0.2,1.1,0.3,1.5c0.5,0.5,1.2,0.6,1.5,0.2l0,0C34.9,106.1,34.8,105.4,34.2,104.9z
	 M31.3,101.7c-0.4-0.5-1-0.8-1.4-0.5s-0.4,0.9,0,1.4s1,0.8,1.3,0.5C31.7,102.9,31.7,102.2,31.3,101.7z M28.8,98.4
	c-0.4-0.4-0.9-0.5-1.2-0.3c-0.3,0.3-0.2,0.8,0.2,1.3c0.4,0.4,0.9,0.5,1.2,0.3C29.2,99.4,29.2,98.8,28.8,98.4z M26,96
	c-0.4-0.2-0.9-0.1-1,0.2c-0.1,0.3,0.1,0.7,0.5,0.9c0.4,0.2,0.9,0.1,1-0.2C26.6,96.6,26.4,96.2,26,96z"/>
<path class="st2" d="M26,96c0.4,0.2,0.7,0.6,0.5,0.9c-0.1,0.3-0.6,0.4-1,0.2c-0.4-0.2-0.7-0.6-0.5-0.9C25,95.9,25.5,95.8,26,96z"/>
<path class="st2" d="M28.8,98.4c0.4,0.4,0.5,1,0.2,1.3s-0.8,0.1-1.2-0.3c-0.4-0.4-0.5-1-0.2-1.3C27.8,97.8,28.4,98,28.8,98.4z"/>
<path class="st2" d="M31.3,101.7c0.4,0.5,0.4,1.2,0,1.5s-1,0-1.3-0.5c-0.4-0.5-0.4-1.2,0-1.4C30.3,100.9,30.9,101.1,31.3,101.7z"/>
<path class="st2" d="M34.2,104.9c0.5,0.5,0.7,1.2,0.3,1.5l0,0c-0.3,0.4-1,0.3-1.5-0.2s-0.7-1.2-0.3-1.5
	C33,104.3,33.7,104.4,34.2,104.9z"/>
<path class="st2" d="M38.1,107.2c0.7,0.2,1.1,0.8,1,1.2c-0.1,0.5-0.8,0.7-1.5,0.5s-1.1-0.8-1-1.2C36.7,107.2,37.4,107,38.1,107.2z"
	/>
<path class="st2" d="M42.7,107.9c0.7,0,1.3,0.4,1.3,0.9s-0.6,0.9-1.3,0.9s-1.3-0.4-1.3-0.9C41.4,108.3,42,107.9,42.7,107.9z"/>
<path class="st2" d="M48.6,108c0.1,0.5-0.4,1-1.1,1.1c-0.7,0.1-1.3-0.2-1.4-0.7c-0.1-0.5,0.4-1,1.1-1.1
	C47.9,107.2,48.5,107.5,48.6,108z"/>
<path class="st2" d="M128,0v128H83.1l0.2-0.2c-0.1,0-0.1,0-0.2,0.1c-3.1,0.6-4.2-1.3-4.2-2.9c0-2,0.1-8.5,0.1-16.6
	c0-5.6-1.9-9.3-4.1-11.2c13.5-1.5,27.6-6.6,27.6-29.8c0-6.6-2.3-12-6.2-16.2c0.6-1.5,2.7-7.7-0.6-16c0,0-5.1-1.6-16.6,6.2
	c-4.8-1.3-10-2-15.1-2c-5.1,0-10.3,0.7-15.1,2c-11.5-7.8-16.6-6.2-16.6-6.2c-3.3,8.3-1.2,14.5-0.6,16c-3.9,4.2-6.2,9.6-6.2,16.2
	c0,23.1,14.1,28.3,27.5,29.8c-1.7,1.5-3.3,4.2-3.8,8.1c-3.5,1.5-12.2,4.2-17.6-5c0,0-3.2-5.8-9.2-6.2c0,0-5.9-0.1-0.4,3.7
	c0,0,4,1.9,6.7,8.8c0,0,3.5,10.8,20.3,7.1c0,5,0.1,9.8,0.1,11.2c0,1.6-1.1,3.5-4.1,2.9c0,0,0,0-0.1,0l0,0.3H0V0H128z"/>
</svg>
