<?xml version="1.0" encoding="UTF-8" standalone="no"?>
<svg
   viewBox="0 0 128 128"
   version="1.1"
   id="svg2"
   sodipodi:docname="linkedin-original-nopadding.svg"
   inkscape:version="1.3 (0e150ed6c4, 2023-07-21)"
   xmlns:inkscape="http://www.inkscape.org/namespaces/inkscape"
   xmlns:sodipodi="http://sodipodi.sourceforge.net/DTD/sodipodi-0.dtd"
   xmlns="http://www.w3.org/2000/svg"
   xmlns:svg="http://www.w3.org/2000/svg">
  <defs
     id="defs2" />
  <sodipodi:namedview
     id="namedview2"
     pagecolor="#ffffff"
     bordercolor="#000000"
     borderopacity="0.25"
     inkscape:showpageshadow="2"
     inkscape:pageopacity="0.0"
     inkscape:pagecheckerboard="0"
     inkscape:deskcolor="#d1d1d1"
     inkscape:zoom="3.9140625"
     inkscape:cx="64"
     inkscape:cy="64"
     inkscape:window-width="1366"
     inkscape:window-height="697"
     inkscape:window-x="-8"
     inkscape:window-y="-8"
     inkscape:window-maximized="1"
     inkscape:current-layer="svg2" />
  <path
     fill="#0076b2"
     d="M 118.55738,4.8407343e-4 H 9.442623 A 9.3481966,9.3481257 0 0 0 0,9.2332014 V 118.78778 a 9.3481966,9.3481257 0 0 0 9.442623,9.21173 H 118.55738 A 9.3691803,9.3691093 0 0 0 128,118.7563 V 9.2017254 A 9.3691803,9.3691093 0 0 0 118.55738,4.8407343e-4 Z"
     id="path1"
     style="stroke-width:1.04917" />
  <path
     fill="#ffffff"
     d="M 18.948197,47.979136 H 37.948853 V 109.11441 H 18.948197 Z m 9.505574,-30.426 a 11.016394,11.01631 0 1 1 -11.016394,11.00582 11.016394,11.01631 0 0 1 11.016394,-11.00582 m 21.41377,30.426 H 68.08131 v 8.393379 h 0.251803 c 2.539018,-4.805209 8.72918,-9.872712 17.972459,-9.872712 19.241968,-0.04197 22.809188,12.621544 22.809188,29.04109 V 109.11441 H 90.114098 V 79.370372 c 0,-7.081912 -0.125903,-16.19922 -9.872787,-16.19922 -9.746887,0 -11.404591,7.721909 -11.404591,15.737586 V 109.11441 H 49.867541 Z"
     id="path2"
     style="stroke-width:1.04917" />
</svg>
