<?xml version="1.0" encoding="utf-8"?>
<!-- Generator: Adobe Illustrator 27.2.0, SVG Export Plug-In . SVG Version: 6.00 Build 0)  -->
<svg version="1.1" id="Layer_1" xmlns="http://www.w3.org/2000/svg" xmlns:xlink="http://www.w3.org/1999/xlink" x="0px" y="0px"
	 viewBox="0 0 64 64" style="enable-background:new 0 0 64 64;" xml:space="preserve">
<style type="text/css">
	.st0{fill:#FFFFFF;}
</style>
<path class="st0" d="M59.1,15.4L32.6,0.2c-0.5-0.3-1-0.2-1.5,0.1L4.8,15.5c-0.5,0.2-0.8,0.8-0.8,1.3l0.1,30.5c0,0.6,0.2,0.9,0.7,1.2
	l26.4,15.1c0.5,0.3,1.1,0.3,1.6,0c1.2-0.7,2.4-1.4,3.6-2.1l22.7-13.2c0.5-0.3,0.7-0.8,0.7-1.3l-0.1-30.5
	C59.9,16.2,59.6,15.7,59.1,15.4z M48,44.2c0,1.4-0.6,2.4-1.8,3.1c-0.9,0.5-1.8,0.6-2.8,0.5c-1.5-0.1-2.8-0.7-3.9-1.6
	c-0.6-0.5-1-1.2-1.5-1.8l-15-17.9c0-0.1-0.1-0.1-0.1-0.2l0,17.8c0,2-1.6,3.8-3.7,3.7c-1.3-0.1-2.3-0.6-3-1.7
	c-0.4-0.5-0.5-1.1-0.5-1.8l-0.1-24.7c0-1.7,1-2.8,2.3-3.4c1.3-0.5,2.6-0.4,3.9,0c1.2,0.3,2.2,1.1,3,2.1l15.8,18.8
	c0.1,0.1,0.1,0.2,0.2,0.3l0-18c0-1.9,1.3-3.4,3.1-3.6c2.3-0.3,3.9,1.3,4.1,3.1L48,44.2z"/>
</svg>
