<?xml version="1.0" encoding="utf-8"?>
<!-- Generator: Adobe Illustrator 27.2.0, SVG Export Plug-In . SVG Version: 6.00 Build 0)  -->
<svg version="1.1" id="Layer_1" xmlns="http://www.w3.org/2000/svg" xmlns:xlink="http://www.w3.org/1999/xlink" x="0px" y="0px"
	 viewBox="0 0 1000 1000" style="enable-background:new 0 0 1000 1000;" xml:space="preserve">
<style type="text/css">
	.st0{fill:#A86B29;}
	.st1{fill:#231F20;}
	.st2{fill:#FFFFFF;}
	.st3{fill:#333333;}
	.st4{fill:#FF5C7F;}
</style>
<g>
	<path class="st0" d="M713.4,128.7c38.5,6.4,73.8,38.5,102.7,61c61,54.6,102.7,125.2,93.1,208.6c-6.4,35.3-22.5,73.8-16,112.3
		c3.2,28.9,38.5,73.8,32.1,99.5c-9.6,38.5-67.4,9.6-86.7-3.2c-38.5-28.9-51.4-67.4-64.2-109.1c-25.7-73.8-25.7-170.1-83.4-224.7
		L713.4,128.7z"/>
	<path class="st1" d="M712,133.8c29.5,5.5,54.4,23.4,77.5,41.5c21.8,17.1,42,35,59.8,56.3c36.1,43.1,58,96.4,55.7,153.1
		c-1.3,30.9-14.1,60.6-17.8,91.4c-3.1,25.6,2.3,48,12.9,71.1c8.3,18.2,25.3,42.9,19.3,63.8c-5.9,20.7-33.8,12.2-47.8,7.1
		c-66.4-24.6-87.5-96.4-103-159.1c-16.2-65.2-23-140.3-74-189.5c-4.9-4.8-12.4,2.7-7.5,7.5c37.9,36.6,50.1,89.7,61,139.3
		c10.8,48.9,21.5,100.2,44.8,145c19.1,36.7,54.2,65.2,95.4,72.5c15.2,2.7,31.3-0.1,39.2-14.7c9.2-17-0.2-37.7-7.2-53.5
		c-7.5-17.1-17.4-33.6-21.4-51.9c-6-26.9,1.3-55.2,7.8-81.3c5.7-22.7,9.8-44,8.8-67.5c-0.9-21.9-5.7-43.5-13.3-64
		c-14.9-40.6-41.8-75.9-72.7-105.7c-16.2-15.6-34.7-29.4-53-42.5c-18.6-13.3-39.2-24.7-61.9-29C708.2,122.3,705.3,132.5,712,133.8
		L712,133.8z"/>
	<path class="st0" d="M341.1,119c-38.5,6.4-73.8,19.3-109.1,41.7c-35.3,25.7-67.4,54.6-80.2,96.3c-9.6,38.5-3.2,83.4-22.5,118.8
		c-19.3,41.7-61,61-96.3,86.7c-28.9,22.5-41.7,41.7-6.4,61c67.4,44.9,173.3,28.9,234.3-19.3c83.4-61,115.5-163.7,118.8-263.2
		L341.1,119z"/>
	<path class="st1" d="M339.7,113.9c-57.9,10-110.2,35.7-152.2,77c-18.5,18.2-32.9,40-40.9,64.7c-8.8,27.4-5.9,58.3-11.3,86.5
		c-5.4,28.4-20.9,52.6-42.3,71.4c-19.7,17.3-43.3,29-63.8,45.1c-13.9,11-35.8,28.4-27.4,48.7c3.9,9.6,13.5,15.7,22.1,20.6
		c10.7,6.1,21,11.9,32.7,16.3c81.3,30.4,175.2-1.4,235.3-59.4c65.1-62.8,90-156,93.1-243.9c0.2-6.9-10.4-6.8-10.6,0
		c-3.8,106.9-42.7,218.5-140,274.5c-45,25.9-101.3,35.4-152.1,25c-12.1-2.5-23.9-6.4-35.2-11.6c-11.7-5.4-27.2-12.9-34.5-23.6
		c-13.5-19.8,34.3-46.2,46.4-54.2c28.6-18.9,57.3-38.5,73.5-69.7c19-36.7,15.3-76.9,22.9-116.3c7.3-38.1,37.8-67.6,67-90.5
		c34.6-27.2,77.1-43,120.2-50.4C349.3,123,346.4,112.8,339.7,113.9L339.7,113.9z"/>
	<path class="st0" d="M212.8,626.1c-22.5-38.5,9.6-118.8,16-157.3c16-61,25.7-122,35.3-182.9c6.4-48.1,6.4-115.5,48.1-150.8
		c38.5-35.3,105.9-25.7,154.1-22.5c61,3.2,118.8,3.2,179.7,3.2c44.9,0,80.2,3.2,99.5,48.1c25.7,57.8,19.3,128.4,19.3,189.4
		c-3.2,96.3,22.5,202.2,3.2,298.5L212.8,626.1z"/>
	<path class="st1" d="M217.3,623.5c-10.8-19.7-7.5-44.8-3.9-65.9c4-23,10.6-45.5,16.3-68.1c15.4-61.3,27-123.4,36.9-185.8
		c7.7-48.6,5.4-103.8,33.1-146.5c30.5-47.1,91.8-44.6,141.1-41c64.2,4.7,128.4,5.1,192.8,5.1c23.9,0,48.8-1.2,71.5,7.5
		c25.3,9.6,36.4,35.8,43.7,59.8c17.6,57.5,10.8,120.7,10.3,180c-0.5,65.2,9.8,129.9,10.7,195.1c0.4,29.1-1.5,58.3-7,86.9
		c-1.3,6.7,8.9,9.5,10.2,2.8c12.3-63.4,6.5-128.1,1.4-192c-2.6-32.2-4.9-64.4-4.7-96.6c0.2-29.7,1.3-59.4,0.8-89.1
		c-0.4-29.1-3-58.3-10.6-86.5c-6-22.1-15.5-46.3-34.3-60.6c-16.4-12.5-36.6-16.1-56.7-17.4c-30.7-1.9-61.8-0.5-92.6-0.7
		c-34-0.3-67.9-1-101.8-2.6c-25.6-1.2-51-4.2-76.6-4c-23.9,0.2-47.9,3.5-69.6,13.9c-20.7,10-36.4,28.7-46.2,49.1
		c-10.3,21.3-14.6,45.2-17.6,68.5c-3.5,27.3-6.4,54.6-10.8,81.8c-9.7,60.3-21.4,120.3-36.8,179.4c-6.1,23.5-12.7,47-15.8,71.1
		c-2.6,20.5-3.3,42.7,6.9,61.3C211.5,634.8,220.7,629.5,217.3,623.5L217.3,623.5z"/>
	<path class="st2" d="M244.9,561.9c-86.7,86.7-35.3,179.7,61,237.5c109.1,64.2,260,77,381.9,32.1c125.2-48.1,150.8-173.3,70.6-279.2
		c-36.9-49.7-90-82.9-143.6-111.9c-27.8-15-56.1-29.1-84-43.9c-71.9-38.2-108,24.1-157.2,65.4C332.6,496.3,282.7,524.2,244.9,561.9z
		"/>
	<path class="st1" d="M241.1,558.2c-34.8,35.4-55.1,81.4-40.7,130.8c14.1,48.4,55.7,85.2,96.8,111.3
		c93.7,59.5,215.6,74.7,323.4,55.1c50-9.1,100.2-26.1,138.1-61.1c30.7-28.4,48.5-67.7,50.8-109.3c2.6-45.8-15.1-90.7-40.9-127.7
		c-33-47.4-80-81.1-129.5-109.5c-20.3-11.6-41-22.4-61.7-33.1c-20.7-10.7-41.3-23.6-63.4-31.2c-30.9-10.6-60,0.6-84.5,19.7
		c-13.1,10.2-24.7,22.2-36.5,33.7c-15,14.6-30.7,27.8-47.5,40.3C310.1,503.6,272.6,527.1,241.1,558.2c-4.9,4.8,2.6,12.3,7.5,7.5
		c42.3-41.7,95.6-69.5,139.4-109.5c32-29.3,65.4-74.5,114.6-64.8c14.4,2.9,27.2,10.6,40.1,17.3c15.8,8.3,31.7,16.4,47.6,24.6
		c27.1,14.2,54,28.9,79.7,45.7c47.9,31.3,89.6,72.4,113.2,125.2c18.5,41.2,22,89.4,4.2,131.4c-18.8,44.5-59.6,75.7-104.1,91.8
		c-108.2,39.3-235,32.9-339.5-14.4c-49.3-22.3-97.9-56.3-124-105c-11.5-21.5-16.3-46.2-12.2-70.3c4.7-28.1,21.7-52.2,41.2-72.1
		C253.4,560.8,245.9,553.3,241.1,558.2z"/>
	<path class="st3" d="M568.9,476.3c37.3,43.5-33.8,80.5-68.5,85.3C345.5,583,462.2,352,568.9,476.3z"/>
	<path class="st1" d="M565.1,480c32.1,39.3-33.2,70.7-64.4,76.1c-23.3,4.1-58,2.4-67.6-23.9c-7.5-20.5,2.7-44.4,15.6-60.3
		c15.5-19,39.3-30.8,64-26.3C534,449.5,551.4,464.2,565.1,480c4.5,5.2,12-2.4,7.5-7.5c-19.7-22.6-46.7-41.2-78-38.1
		c-24.1,2.4-44.7,17.5-58.5,36.8c-12.4,17.3-19.7,40.7-13.9,61.7c6.5,23.9,30.1,33.7,52.8,35.2c29.3,2,59-8,82.7-24.9
		c11.4-8.1,21.3-18.6,25.6-32.1c4.5-14.1-1.9-27.8-10.7-38.6C568.3,467.2,560.8,474.8,565.1,480z"/>
	<path class="st1" d="M621.5,314.8c0,6.9,1,12.5,3.9,18.7c2.3,5,9.9,2.3,9.9-2.7c0-6.4,0-12.8,0-19.3c0-6-8.9-7.2-10.4-1.4
		c-2.7,10.2,2.3,15,7,23.4c1.9,3.3,7.4,3.6,9.2,0c3.7-7.5,3.2-12.2,0.5-20.1c-1.8-5.5-10.7-4.8-10.4,1.4c0.3,8,3.5,12,7.1,18.7
		c2,3.6,7.2,3.3,9.2,0c7.5-12.3,2.7-22-8.3-29.7c-2.8-1.9-7.1,0-7.8,3.2c-3.7,16.5,1.1,37.8,21.2,38.8c2.2,0.1,4.6-1.7,5.1-3.9
		c3.7-17.2-6-31.4-23-35.4c-2.5-0.6-4.6,0.4-6,2.4c-10.9,15.9-3.9,42.2,17.4,43.3c1.7,0.1,3.9-1,4.6-2.6c6.5-14.4,4.9-29.6-8.3-39.4
		c-1.8-1.3-5-0.8-6.4,0.8c-6.4,7.6-6.8,16,0,23.6c4.6,5.1,12.1-2.4,7.5-7.5c-2.5-2.8-3-5,0-8.5c-2.1,0.3-4.3,0.6-6.4,0.8
		c8.2,6.1,8.4,16.2,4.5,24.8c1.5-0.9,3.1-1.8,4.6-2.6c-13.5-0.7-14.2-18.7-8.3-27.3c-2,0.8-4,1.6-6,2.4
		c11.1,2.6,18.1,10.6,15.5,22.4c1.7-1.3,3.4-2.6,5.1-3.9c-12.3-0.6-13-16.2-10.9-25.4c-2.6,1.1-5.2,2.1-7.8,3.2
		c6.3,4.4,8.8,8.2,4.5,15.2c3.1,0,6.1,0,9.2,0c-2.6-4.8-5.5-7.6-5.7-13.4c-3.5,0.5-7,0.9-10.4,1.4c1.6,4.9,2.8,7.3,0.5,12
		c3.1,0,6.1,0,9.2,0c-2.9-5.3-7.6-8.7-5.9-15.2c-3.5-0.5-7-0.9-10.4-1.4c0,6.4,0,12.8,0,19.3c3.3-0.9,6.6-1.8,9.9-2.7
		c-2.1-4.5-2.5-8.5-2.5-13.4C632.1,308,621.4,308,621.5,314.8L621.5,314.8z"/>
	<path class="st1" d="M383.2,302.5c-8.4-1.7-15.7,0.8-20.3,8.2c-5.1,8-3.6,18.6,0.1,26.7c3.2,7.1,9.9,12.3,17.8,10.5
		c8.6-1.9,13.1-12.2,15.7-19.6c2.2-6.3,4.8-14,2.2-20.6c-2.1-5.1-6.8-8-12.3-7c-13.8,2.6-17.3,21.1-16.3,32.6
		c0.2,2.9,2.2,5.3,5.3,5.3c2.1,0,4.3,0,6.4,0c1.8,0,3.8-1,4.6-2.6c2.8-5.9,5.2-12.3,3.3-18.9c-1.7-6.1-7.4-9.4-12.9-11.3
		c-2.3-0.8-4.8,0.5-6,2.4c-6.6,10.6-4.4,20.2,4,28.9c1.9,1.9,5.7,2.2,7.5,0c4.7-5.7,4.8-12.7,4.8-19.8c0-6.9-10.6-6.9-10.6,0
		c0,3.5,0.8,9.4-1.7,12.3c2.5,0,5,0,7.5,0c-5.1-5.3-6.4-9.5-2.4-16c-2,0.8-4,1.6-6,2.4c7.6,2.7,6.3,8.3,3.2,14.7
		c1.5-0.9,3.1-1.8,4.6-2.6c-2.1,0-4.3,0-6.4,0c1.8,1.8,3.5,3.5,5.3,5.3c-0.6-6.8-0.3-16.8,6-21.3c0.6-0.4,2-1,1.7-0.9
		c0.6-0.1,0.4,0,0.3-0.1c-0.2-0.2,0.4,0.6,0.5,1.4c0.2,1.8,0,3.6-0.4,5.3c-0.8,4.1-7,25-13.8,18.5c-6.4-6.1-7.5-26.2,5.4-23.5
		C387,314.2,389.9,303.9,383.2,302.5L383.2,302.5z"/>
	<path class="st4" d="M572.2,719.2c-7.9,38.9-3.9,96.6-60.6,99.2c-45.3,2.1-59-65.8-57.7-101.9c32.3-2.2,53.3-37,50.9-66.9
		c3.2,44.7,27.3,62.6,67.4,72.8V719.2z"/>
	<path class="st1" d="M567.1,717.8c-7.1,36-4.6,90.3-52.6,95.1c-46,4.6-56.2-63.3-55.3-96.4c-1.8,1.8-3.5,3.5-5.3,5.3
		c35.4-3.5,58.1-38.1,56.2-72.2c-3.5,0-7.1,0-10.6,0c1.6,19.5,7,37.8,20.6,52.3c13.2,14,32.6,20.9,50.7,25.6
		c6.6,1.7,9.4-8.5,2.8-10.2c-16.1-4.2-32-9.9-44.4-21.3c-12.9-11.9-17.7-29.4-19.1-46.4c-0.6-6.7-11-6.9-10.6,0
		c1.6,27.7-15.8,58.6-45.6,61.6c-2.9,0.3-5.2,2.2-5.3,5.3c-1.1,38.8,11.3,105.6,60.7,107.3c24.2,0.8,44.4-12.9,53.9-34.6
		c9.4-21.5,9.6-45.7,14.1-68.5C578.7,713.9,568.4,711.1,567.1,717.8L567.1,717.8z"/>
	<path class="st1" d="M378.3,667.3c12.9,22.8,27.9,46.2,53.9,54.9c18.8,6.3,39.8,0.5,53.5-13.5c15.5-15.8,21-40,24.5-61
		c5-30.4,5.3-61.4,5.4-92.1c-3.5,0-7.1,0-10.6,0c0,29.1-0.4,58.4,3.2,87.3c2.8,22.9,8.6,46.1,23.6,64.1c12.9,15.6,34,22.9,53.7,18.1
		c23.4-5.7,38-28.7,46.6-49.4c2.6-6.3-7.7-9.1-10.2-2.8c-8.1,19.5-21.5,38.8-43.6,42.9c-19.8,3.8-37.3-11.4-46.3-27.4
		c-10.3-18.2-12.9-40.7-14.6-61.1c-2-23.8-1.6-47.9-1.6-71.8c0-6.9-10.6-6.9-10.6,0c0,26.4-0.5,52.9-3.6,79.2
		c-2.4,20.5-6.6,42-17.8,59.6c-10,15.7-28,22.5-46,18.3c-24.4-5.7-38.7-30.6-50-50.7C384.1,656,374.9,661.4,378.3,667.3L378.3,667.3
		z"/>
	<rect x="384.4" y="310.6" class="st1" width="8.7" height="7.6"/>
</g>
</svg>
