<?xml version="1.0" encoding="utf-8"?>
<!-- Generator: Adobe Illustrator 27.2.0, SVG Export Plug-In . SVG Version: 6.00 Build 0)  -->
<svg version="1.1" id="Layer_1" xmlns="http://www.w3.org/2000/svg" xmlns:xlink="http://www.w3.org/1999/xlink" x="0px" y="0px"
	 viewBox="0 0 1000 363.83" style="enable-background:new 0 0 1000 363.83;" xml:space="preserve">
<style type="text/css">
	.st0{fill:#A86B29;}
	.st1{fill:#231F20;}
	.st2{fill:#FFFFFF;}
	.st3{fill:#333333;}
	.st4{fill:#FF5C7F;}
</style>
<g>
	<g>
		<path class="st0" d="M341.6,11.97c18.44,3.07,35.35,18.44,49.18,29.2c29.2,26.12,49.18,59.93,44.57,99.89
			c-3.07,16.9-10.76,35.35-7.68,53.79c1.54,13.83,18.44,35.35,15.37,47.64c-4.61,18.44-32.27,4.61-41.49-1.54
			c-18.44-13.83-24.59-32.27-30.73-52.25c-12.29-35.34-12.29-81.45-39.96-107.57L341.6,11.97z"/>
		<path class="st1" d="M340.93,14.42c14.13,2.62,26.04,11.19,37.13,19.88c10.44,8.18,20.09,16.75,28.63,26.94
			c17.3,20.62,27.78,46.18,26.65,73.31c-0.62,14.82-6.73,29.02-8.5,43.74c-1.47,12.28,1.1,22.98,6.17,34.02
			c4,8.71,12.12,20.55,9.26,30.56c-2.82,9.89-16.19,5.85-22.87,3.38c-31.82-11.78-41.89-46.18-49.34-76.19
			c-7.75-31.22-11-67.17-35.42-90.74c-2.36-2.28-5.96,1.32-3.6,3.6c18.14,17.51,23.97,42.95,29.2,66.7
			c5.15,23.42,10.27,48,21.46,69.43c9.16,17.56,25.97,31.2,45.69,34.73c7.29,1.31,14.99-0.06,18.76-7.04
			c4.39-8.13-0.08-18.03-3.44-25.64c-3.61-8.17-8.31-16.07-10.27-24.86c-2.87-12.89,0.62-26.44,3.76-38.92
			c2.73-10.87,4.69-21.07,4.24-32.33c-0.42-10.48-2.74-20.83-6.35-30.64c-7.14-19.45-20.02-36.32-34.8-50.61
			c-7.73-7.48-16.62-14.09-25.36-20.35c-8.92-6.39-18.77-11.85-29.66-13.86C339.07,8.92,337.71,13.82,340.93,14.42L340.93,14.42z"/>
	</g>
	<g>
		<path class="st0" d="M163.34,7.36c-18.44,3.07-35.34,9.22-52.25,19.98c-16.9,12.29-32.27,26.12-38.42,46.1
			c-4.61,18.44-1.54,39.96-10.76,56.86c-9.22,19.98-29.2,29.2-46.1,41.49c-13.83,10.76-19.98,19.98-3.07,29.2
			c32.27,21.51,82.98,13.83,112.18-9.22c39.95-29.2,55.32-78.37,56.86-126.01L163.34,7.36z"/>
		<path class="st1" d="M162.67,4.9c-27.72,4.78-52.79,17.09-72.87,36.86c-8.86,8.72-15.76,19.14-19.57,31
			c-4.23,13.13-2.81,27.94-5.4,41.42c-2.61,13.57-9.99,25.16-20.27,34.21c-9.41,8.27-20.74,13.87-30.54,21.6
			c-6.65,5.25-17.13,13.58-13.13,23.33c1.88,4.58,6.46,7.51,10.57,9.86c5.14,2.94,10.07,5.72,15.64,7.8
			c38.91,14.55,83.88-0.67,112.66-28.45c31.16-30.08,43.08-74.69,44.57-116.77c0.12-3.28-4.97-3.27-5.09,0
			c-1.81,51.17-20.45,104.63-67.02,131.45c-21.52,12.4-48.48,16.94-72.82,11.99c-5.81-1.18-11.47-3.08-16.84-5.57
			c-5.58-2.59-13-6.16-16.52-11.32c-6.46-9.49,16.43-22.11,22.21-25.93c13.69-9.04,27.43-18.43,35.18-33.38
			c9.1-17.55,7.35-36.8,10.97-55.69c3.5-18.24,18.08-32.36,32.07-43.36c16.57-13.02,36.91-20.58,57.54-24.14
			C167.25,9.25,165.87,4.35,162.67,4.9L162.67,4.9z"/>
	</g>
	<g>
		<path class="st0" d="M101.87,250.16c-10.76-18.44,4.61-56.86,7.68-75.3c7.68-29.2,12.29-58.4,16.9-87.59
			c3.07-23.05,3.07-55.32,23.05-72.23c18.44-16.9,50.71-12.29,73.76-10.76c29.2,1.54,56.86,1.54,86.06,1.54
			c21.51,0,38.42,1.54,47.64,23.05c12.29,27.66,9.22,61.47,9.22,90.67c-1.54,46.1,10.76,96.81,1.54,142.92L101.87,250.16z"/>
		<path class="st1" d="M104.07,248.88c-5.19-9.42-3.61-21.43-1.87-31.57c1.89-11.02,5.09-21.77,7.81-32.6
			c7.38-29.37,12.92-59.08,17.67-88.98c3.7-23.27,2.59-49.7,15.85-70.17C158.14,3,187.49,4.2,211.09,5.92
			c30.73,2.23,61.5,2.44,92.29,2.45c11.44,0,23.37-0.57,34.24,3.58c12.11,4.61,17.42,17.14,20.94,28.65
			c8.42,27.53,5.17,57.82,4.95,86.17c-0.24,31.21,4.71,62.2,5.12,93.4c0.18,13.95-0.7,27.92-3.35,41.62
			c-0.62,3.2,4.28,4.57,4.91,1.35c5.88-30.37,3.11-61.33,0.66-91.91c-1.23-15.4-2.35-30.81-2.23-46.27
			c0.11-14.22,0.62-28.44,0.4-42.66c-0.21-13.94-1.44-27.93-5.08-41.43c-2.86-10.59-7.42-22.16-16.43-29.02
			c-7.86-5.99-17.51-7.71-27.16-8.31C305.64,2.6,290.74,3.3,276,3.19c-16.26-0.12-32.51-0.48-48.75-1.25
			c-12.23-0.58-24.4-2.02-36.66-1.94c-11.43,0.07-22.96,1.65-33.32,6.66c-9.92,4.8-17.43,13.73-22.14,23.51
			c-4.92,10.22-6.99,21.66-8.43,32.82c-1.69,13.09-3.06,26.13-5.16,39.17c-4.64,28.87-10.27,57.59-17.63,85.89
			c-2.92,11.24-6.09,22.48-7.55,34.03c-1.24,9.82-1.6,20.43,3.32,29.36C101.26,254.32,105.65,251.75,104.07,248.88L104.07,248.88z"
			/>
	</g>
	<g>
		<path class="st2" d="M117.24,219.43c-41.49,41.49-16.9,86.06,29.2,113.72c52.25,30.73,124.48,36.88,182.87,15.37
			c59.93-23.05,72.23-82.98,33.81-133.7c-17.67-23.82-43.09-39.69-68.78-53.59c-13.3-7.2-26.87-13.92-40.23-21.01
			c-34.43-18.29-51.71,11.54-75.25,31.3C159.23,187.99,135.35,201.33,117.24,219.43z"/>
		<path class="st1" d="M115.44,217.63c-16.67,16.96-26.39,38.96-19.51,62.64c6.74,23.19,26.65,40.8,46.34,53.3
			c44.87,28.5,103.23,35.78,154.84,26.38c23.95-4.36,47.98-12.48,66.13-29.27c14.69-13.59,23.2-32.42,24.32-52.31
			c1.24-21.92-7.24-43.42-19.58-61.16c-15.78-22.7-38.33-38.84-62.03-52.43c-9.7-5.56-19.63-10.71-29.56-15.83
			c-9.92-5.12-19.76-11.31-30.35-14.93c-14.81-5.07-28.71,0.28-40.48,9.45c-6.25,4.87-11.82,10.61-17.49,16.13
			c-7.16,6.97-14.71,13.33-22.72,19.31C148.48,191.49,130.51,202.76,115.44,217.63c-2.34,2.31,1.26,5.9,3.6,3.6
			c20.24-19.97,45.78-33.29,66.72-52.42c15.34-14.01,31.34-35.69,54.85-31.01c6.91,1.37,13.03,5.06,19.2,8.28
			c7.58,3.96,15.2,7.84,22.78,11.79c13,6.78,25.87,13.84,38.14,21.87c22.94,15,42.88,34.68,54.2,59.96
			c8.84,19.73,10.51,42.81,2.02,62.93c-8.99,21.3-28.54,36.23-49.84,43.98c-51.79,18.83-112.5,15.73-162.58-6.92
			c-23.6-10.67-46.89-26.98-59.37-50.27c-5.51-10.29-7.8-22.11-5.86-33.66c2.25-13.45,10.37-25.01,19.73-34.54
			C121.34,218.88,117.74,215.29,115.44,217.63z"/>
	</g>
	<g>
		<path class="st3" d="M272.39,178.41c17.85,20.82-16.18,38.54-32.82,40.84C165.43,229.51,221.32,118.88,272.39,178.41z"/>
		<path class="st1" d="M270.59,180.21c15.37,18.8-15.89,33.83-30.83,36.46c-11.17,1.97-27.76,1.17-32.36-11.44
			c-3.57-9.8,1.29-21.27,7.49-28.88c7.41-9.1,18.82-14.76,30.65-12.6C255.71,165.61,264,172.64,270.59,180.21
			c2.16,2.48,5.74-1.14,3.6-3.6c-9.43-10.83-22.36-19.75-37.34-18.25c-11.56,1.15-21.4,8.36-28.01,17.6
			c-5.94,8.3-9.44,19.47-6.68,29.56c3.13,11.42,14.41,16.14,25.29,16.87c14.02,0.94,28.26-3.83,39.62-11.91
			c5.44-3.87,10.19-8.92,12.24-15.38c2.14-6.74-0.9-13.33-5.11-18.48C272.11,174.07,268.53,177.7,270.59,180.21z"/>
	</g>
	<path class="st1" d="M297.57,101.1c0.01,3.29,0.5,5.97,1.88,8.97c1.1,2.38,4.74,1.1,4.74-1.28c0-3.07,0-6.15,0-9.22
		c0-2.87-4.25-3.47-5-0.68c-1.31,4.89,1.11,7.2,3.33,11.18c0.89,1.59,3.54,1.72,4.39,0c1.78-3.6,1.51-5.86,0.26-9.64
		c-0.87-2.64-5.1-2.3-5,0.68c0.14,3.83,1.66,5.77,3.42,8.97c0.94,1.71,3.42,1.59,4.39,0c3.59-5.88,1.29-10.54-3.99-14.24
		c-1.32-0.92-3.39,0-3.74,1.52c-1.78,7.91,0.53,18.12,10.14,18.59c1.07,0.05,2.23-0.81,2.45-1.87c1.77-8.25-2.85-15.05-11-16.96
		c-1.18-0.28-2.2,0.19-2.87,1.17c-5.22,7.61-1.86,20.2,8.34,20.73c0.81,0.04,1.85-0.5,2.2-1.26c3.13-6.9,2.35-14.17-3.99-18.85
		c-0.85-0.63-2.41-0.4-3.08,0.4c-3.07,3.65-3.24,7.65,0,11.28c2.19,2.45,5.77-1.16,3.6-3.6c-1.19-1.33-1.43-2.39,0-4.09
		c-1.03,0.13-2.06,0.26-3.08,0.4c3.92,2.9,4.04,7.74,2.16,11.89c0.73-0.42,1.46-0.84,2.2-1.26c-6.47-0.34-6.79-8.94-3.95-13.08
		c-0.96,0.39-1.91,0.78-2.87,1.17c5.34,1.25,8.65,5.1,7.44,10.7c0.82-0.62,1.64-1.25,2.45-1.87c-5.9-0.29-6.22-7.75-5.23-12.15
		c-1.25,0.51-2.49,1.01-3.74,1.52c3.02,2.12,4.21,3.91,2.16,7.28c1.46,0,2.93,0,4.39,0c-1.26-2.31-2.63-3.63-2.73-6.4
		c-1.67,0.23-3.33,0.45-5,0.68c0.77,2.32,1.35,3.51,0.26,5.72c1.46,0,2.93,0,4.39,0c-1.4-2.52-3.65-4.14-2.82-7.26
		c-1.67-0.23-3.33-0.45-5-0.68c0,3.07,0,6.15,0,9.22c1.58-0.43,3.16-0.86,4.74-1.28c-1-2.16-1.18-4.05-1.19-6.4
		C302.64,97.82,297.56,97.82,297.57,101.1L297.57,101.1z"/>
	<path class="st1" d="M183.46,95.22c-4.01-0.83-7.51,0.4-9.74,3.9c-2.45,3.84-1.71,8.89,0.07,12.78c1.54,3.39,4.73,5.89,8.54,5.03
		c4.1-0.92,6.28-5.86,7.52-9.37c1.07-3.04,2.32-6.68,1.04-9.86c-0.99-2.46-3.26-3.83-5.9-3.33c-6.61,1.25-8.29,10.12-7.82,15.59
		c0.12,1.38,1.07,2.54,2.54,2.54c1.02,0,2.05,0,3.07,0c0.84,0,1.82-0.47,2.2-1.26c1.36-2.85,2.48-5.9,1.6-9.07
		c-0.81-2.91-3.55-4.48-6.19-5.43c-1.08-0.39-2.3,0.25-2.87,1.17c-3.15,5.08-2.09,9.69,1.93,13.84c0.9,0.93,2.72,1.05,3.6,0
		c2.27-2.71,2.28-6.1,2.28-9.48c0-3.28-5.08-3.28-5.09,0c0,1.69,0.38,4.48-0.79,5.89c1.2,0,2.4,0,3.6,0
		c-2.46-2.54-3.08-4.54-1.14-7.67c-0.96,0.39-1.91,0.78-2.87,1.17c3.64,1.3,3.02,3.96,1.55,7.02c0.73-0.42,1.46-0.84,2.2-1.26
		c-1.02,0-2.05,0-3.07,0c0.85,0.85,1.7,1.7,2.54,2.54c-0.28-3.26-0.12-8.02,2.87-10.18c0.3-0.21,0.95-0.46,0.79-0.45
		c0.28-0.03,0.19,0.01,0.14-0.04c-0.12-0.11,0.18,0.27,0.23,0.68c0.1,0.85-0.01,1.71-0.18,2.54c-0.39,1.99-3.34,11.98-6.6,8.87
		c-3.04-2.9-3.58-12.56,2.61-11.27C185.31,100.79,186.67,95.89,183.46,95.22L183.46,95.22z"/>
	<g>
		<path class="st4" d="M273.99,294.73c-3.81,18.64-1.86,46.25-28.99,47.49c-21.69,0.98-28.27-31.52-27.63-48.8
			c15.47-1.07,25.51-17.74,24.36-32.03c1.52,21.42,13.06,29.98,32.27,34.88V294.73z"/>
		<path class="st1" d="M271.54,294.05c-3.41,17.25-2.2,43.23-25.16,45.53c-22.05,2.21-26.93-30.3-26.47-46.17
			c-0.85,0.85-1.7,1.7-2.54,2.54c16.96-1.68,27.83-18.26,26.9-34.58c-1.7,0-3.39,0-5.09,0c0.77,9.34,3.35,18.09,9.87,25.05
			c6.3,6.72,15.59,10.01,24.27,12.28c3.18,0.83,4.52-4.07,1.35-4.91c-7.7-2.02-15.31-4.73-21.26-10.21
			c-6.19-5.71-8.47-14.09-9.14-22.21c-0.27-3.23-5.28-3.3-5.09,0c0.76,13.27-7.57,28.08-21.82,29.49c-1.41,0.14-2.5,1.05-2.54,2.54
			c-0.54,18.57,5.4,50.55,29.07,51.36c11.58,0.4,21.26-6.17,25.81-16.59c4.5-10.31,4.6-21.89,6.75-32.79
			C277.07,292.2,272.17,290.83,271.54,294.05L271.54,294.05z"/>
	</g>
	<path class="st1" d="M181.12,269.89c6.15,10.9,13.37,22.14,25.83,26.27c9.02,2.99,19.06,0.22,25.61-6.48
		c7.41-7.58,10.05-19.13,11.72-29.21c2.4-14.54,2.55-29.42,2.56-44.12c-1.7,0-3.39,0-5.09,0c-0.01,13.95-0.21,27.95,1.52,41.82
		c1.36,10.94,4.14,22.07,11.31,30.71c6.19,7.47,16.3,10.95,25.69,8.65c11.22-2.75,18.17-13.72,22.3-23.65
		c1.26-3.03-3.67-4.34-4.91-1.35c-3.89,9.36-10.32,18.55-20.87,20.55c-9.49,1.8-17.88-5.45-22.19-13.1
		c-4.91-8.72-6.2-19.47-7.01-29.27c-0.95-11.42-0.76-22.92-0.75-34.37c0-3.28-5.08-3.28-5.09,0c-0.01,12.65-0.25,25.33-1.7,37.91
		c-1.13,9.79-3.16,20.13-8.52,28.56c-4.79,7.53-13.42,10.77-22.04,8.76c-11.68-2.72-18.53-14.64-23.96-24.27
		C183.9,264.46,179.51,267.03,181.12,269.89L181.12,269.89z"/>
	<rect x="184.04" y="99.07" class="st1" width="4.19" height="3.64"/>
	<path d="M509.08,157.61c-1.25-0.65-2.25-2.03-2.98-4.15c-0.74-2.12-1.34-5.88-1.82-11.28c-0.48-5.4-0.99-13.4-1.56-23.99
		c-0.99-18.89-1.49-33.51-1.49-43.84c0-13.7,0.97-21.16,2.92-22.37c0.95-0.6,3.63-1.2,8.04-1.78c4.41-0.58,9.42-1.07,15.05-1.46
		c6.87-0.47,12.36-0.71,16.47-0.71c3.89,0,6.4,0.19,7.52,0.58c2.42,1.17,3.67,2.32,3.76,3.47c0.09,1.15,0.13,1.83,0.13,2.04
		c0,1.9-1.02,3.44-3.05,4.6c-0.99,0.52-2.25,0.87-3.76,1.04c-2.29,0.26-6.64,0.61-13.04,1.04l-15.69,1.04h-0.45
		c-1.56,0-2.69,0.21-3.4,0.62c-0.71,0.41-1.1,1.22-1.17,2.43c-0.06,1.21-0.1,2.18-0.1,2.92c0,1.86,0.09,4.32,0.26,7.39l0.39,9.53
		c0.04,2.68,0.18,4.6,0.42,5.77c0.24,1.17,0.84,1.86,1.82,2.08c0.97,0.22,2.37,0.32,4.18,0.32h4.22c4.28,0.09,7.58,0.3,9.89,0.65
		c2.31,0.35,3.89,0.95,4.73,1.82c0.84,0.87,1.26,2.1,1.26,3.7c0,1.56-0.36,2.72-1.07,3.5c-0.71,0.78-2.17,1.33-4.38,1.65
		c-2.21,0.32-5.49,0.55-9.86,0.68l-10.25,0.39c0.09,8.73,0.39,17.87,0.91,27.4c0.52,9.53,0.78,15.55,0.78,18.06
		c0,2.72-0.3,4.47-0.91,5.25c-0.43,0.56-1.06,1.04-1.88,1.43c-1.12,0.6-2.21,0.91-3.24,0.91
		C510.83,158.32,509.94,158.08,509.08,157.61z"/>
	<path d="M567.83,156.44l-1.36-0.45c-1.34-0.35-2.4-1.1-3.18-2.27c-0.78-1.17-1.36-3.36-1.75-6.58c-0.39-3.22-0.65-8.07-0.78-14.56
		c-0.17-8.65-0.26-18.7-0.26-30.16c0-6.49,0.01-11.55,0.03-15.21c0.02-3.65,0.12-6.32,0.29-8.01c0.17-1.69,0.45-2.83,0.84-3.44
		c0.39-0.6,0.95-1.12,1.69-1.56l0.32-0.19c1.17-0.78,2.27-1.17,3.31-1.17c0.91,0,1.75,0.3,2.53,0.91c1.73,1.3,2.85,3.61,3.37,6.94
		c0.22,1.64,0.39,2.76,0.52,3.34c0.13,0.58,0.3,0.88,0.52,0.88c0.3,0,0.8-0.37,1.49-1.1c6.18-5.66,12.75-8.5,19.71-8.5
		c7.65,0,14.59,3.33,20.82,9.99c2.98,3.5,4.47,6.53,4.47,9.08v0.32c-0.13,2.68-0.85,4.12-2.17,4.31c-1.32,0.19-2.11,0.29-2.37,0.29
		c-2.2,0-4.86-1.4-7.98-4.22c-4.32-4.24-8.5-6.36-12.52-6.36c-4.28,0-8.86,2.46-13.75,7.39c-2.38,2.25-4.09,4.35-5.12,6.29
		c-1.04,1.95-1.62,4.32-1.75,7.13c-0.13,2.81-0.19,5.47-0.19,7.98c0,3.2,0.06,7.03,0.19,11.48c0.13,4.89,0.19,8.97,0.19,12.26
		c0,1.95-0.02,3.61-0.06,4.99c-0.13,3.63-0.56,6.04-1.3,7.23c-0.74,1.19-1.97,2-3.7,2.43c-0.74,0.35-1.34,0.52-1.82,0.52H567.83z"/>
	<path d="M632.49,62.86c-2.59-1.6-3.98-3.16-4.15-4.67c-0.17-1.51-0.26-2.49-0.26-2.92c0-2.12,0.65-4.06,1.95-5.84
		c1.56-2.12,3.85-3.22,6.87-3.31c3.07,0.13,5.18,1.08,6.32,2.85c1.15,1.77,1.72,3.5,1.72,5.19c0,3.63-1.77,6.49-5.32,8.56
		c-0.82,0.39-2.18,0.58-4.09,0.58C634.2,63.31,633.18,63.16,632.49,62.86z M635.99,155.6c-1.34-0.26-2.33-0.9-2.98-1.91
		c-0.65-1.02-1.1-3-1.36-5.97c-0.26-2.96-0.48-7.51-0.65-13.65c-0.39-12.49-0.58-22.81-0.58-30.93c0-13.88,0.71-22.48,2.14-25.81
		c1.12-2.64,2.68-3.96,4.67-3.96c2.46,0,4.19,0.97,5.19,2.92c0.82,1.64,1.39,4.93,1.72,9.86c0.32,4.93,0.55,12.43,0.68,22.5
		c0.13,6.01,0.19,11.37,0.19,16.08c0,6.31-0.11,11.48-0.32,15.5c-0.39,7.09-1.16,11.5-2.3,13.23c-1.15,1.73-2.48,2.59-3.99,2.59
		C637.65,156.05,636.85,155.9,635.99,155.6z"/>
	<path d="M685.47,155.86c-6.79-1.82-12.28-5.7-16.47-11.64c-4.19-5.94-6.54-11.32-7.04-16.12c-0.5-4.8-0.75-7.98-0.75-9.53
		c0-6.4,1.34-12.8,4.02-19.2c3.37-7.52,8.18-13.49,14.43-17.9c6.25-4.41,11.25-6.75,15.01-7.04c3.76-0.28,5.97-0.42,6.62-0.42
		c6.01,0,11.35,1.95,16.02,5.84c3.76,3.42,5.64,7.07,5.64,10.96c0,4.37-2.01,8.67-6.03,12.91c-3.76,3.89-8.84,7.21-15.24,9.95
		c-6.4,2.75-13.71,4.46-21.92,5.16l-3.7,0.32l0.06,3.11c0.13,3.55,1.1,7.02,2.92,10.41c1.82,3.39,4.06,5.91,6.74,7.55
		c1.6,0.95,3.29,1.43,5.06,1.43c6.36,0,13.73-6.18,22.11-18.55c2.46-3.67,4.31-5.83,5.54-6.45c1.23-0.63,2.19-0.94,2.89-0.94
		c1.08,0,2.2,0.43,3.37,1.3c1.69,1.12,2.53,2.57,2.53,4.35c0,1.77-0.95,4.47-2.85,8.11c-5.15,10.12-10.66,17.15-16.54,21.11
		c-5.88,3.96-11.41,5.93-16.6,5.93C689.36,156.51,687.42,156.29,685.47,155.86z M683.14,105.08c5.79-1.21,10.91-2.89,15.34-5.03
		c4.43-2.14,7.28-3.99,8.56-5.54c1.27-1.56,1.91-2.72,1.91-3.5c0-0.91-0.61-1.71-1.82-2.4c-1.86-0.78-3.8-1.17-5.84-1.17
		c-2.94,0-6.05,0.84-9.34,2.53c-5.53,2.81-9.88,7.18-13.04,13.1c-0.48,0.91-0.71,1.58-0.71,2.01c0,0.43,0.35,0.65,1.04,0.65
		C680.02,105.73,681.32,105.51,683.14,105.08z"/>
	<path d="M791.83,154.3c-0.65-0.65-1.13-1.52-1.46-2.63c-0.32-1.1-0.56-3.02-0.71-5.74c-0.15-2.72-0.27-6.79-0.36-12.19
		c-0.13-9.47-0.44-16.49-0.94-21.08c-0.5-4.58-1.39-8.78-2.69-12.58c-1.82-5.4-3.86-8.38-6.13-8.92c-2.27-0.54-3.84-0.81-4.7-0.81
		c-2.9,0-5.88,1.21-8.95,3.63c-3.93,3.11-7.26,8.04-9.99,14.79l-1.17,2.92l-0.19,20.88c-0.09,10.03-0.26,16.06-0.52,18.09
		c-0.17,1.38-0.43,2.36-0.78,2.92c-0.56,0.86-1.17,1.45-1.82,1.75c-0.91,0.78-1.71,1.17-2.4,1.17h-1.17c-1.17,0-2.27-0.32-3.31-0.97
		l-0.19-0.19c-0.69-0.39-1.22-0.84-1.59-1.36c-0.37-0.52-0.65-1.45-0.84-2.79s-0.31-3.46-0.36-6.36c-0.17-6.7-0.26-10.98-0.26-12.84
		c-0.17-12.23-0.43-22.72-0.78-31.45c-0.3-7.05-0.45-12.41-0.45-16.08c0-4.5,0.35-7.36,1.04-8.59c0.69-1.23,1.82-2.02,3.37-2.37
		c0.69-0.22,1.34-0.32,1.95-0.32c3.46,0,5.62,3.5,6.49,10.51l0.07,0.91c0.13,2.08,0.29,3.16,0.49,3.24
		c0.19,0.09,0.31,0.13,0.36,0.13c0.39,0,1.34-0.76,2.85-2.27c6.92-6.4,13.6-9.6,20.04-9.6c1.51,0,3,0.17,4.47,0.52
		c7.78,1.9,13.6,8.3,17.44,19.2c1.17,3.55,1.88,5.84,2.14,6.87c1.38,5.92,2.2,12.54,2.46,19.84c0.17,5.1,0.26,9.51,0.26,13.23
		c0,9.73-0.3,15.35-0.91,16.86c-1.34,2.25-2.61,3.46-3.79,3.63c-1.19,0.17-1.94,0.26-2.24,0.26
		C794.83,156.51,793.25,155.77,791.83,154.3z"/>
	<path d="M871.66,157.8c-1.34-0.69-2.25-1.96-2.72-3.79c-0.48-1.84-0.75-5.18-0.81-10.02c-0.06-4.84-0.16-7.59-0.29-8.24
		c-0.13-0.48-0.26-0.71-0.39-0.71c-0.43,0-0.65,0.17-0.65,0.52c0,0.35-0.54,1.32-1.62,2.92c-2.42,3.55-5.06,6.81-7.91,9.79
		c-5.75,5.49-10.06,8.29-12.94,8.4c-2.88,0.11-4.46,0.16-4.77,0.16c-5.1,0-9.58-1.88-13.42-5.64c-4.06-3.98-6.64-8.48-7.72-13.52
		c-1.08-5.04-1.62-9.2-1.62-12.48c0-4.58,0.63-9.51,1.88-14.79c2.16-8.26,5.6-15.15,10.31-20.69c4.71-5.53,9.22-8.99,13.52-10.38
		c4.3-1.38,7.77-2.08,10.41-2.08c3.42,0,6.85,0.71,10.31,2.14l0.65,0.26c0.52,0.3,0.93,0.45,1.23,0.45l0.26-0.06
		c0.3-0.09,0.48-0.71,0.52-1.88c0-1.17-0.07-3.13-0.19-5.9c-0.04-0.78-0.06-1.6-0.06-2.46c-0.13-2.81-0.19-5.32-0.19-7.52
		c0-2.59,0.09-4.8,0.26-6.61c0.3-3.37,0.96-5.71,1.98-7c1.02-1.3,2.52-1.95,4.51-1.95c2.29,0,3.92,0.9,4.9,2.69
		c0.97,1.79,1.61,5.07,1.91,9.82c0.95,13.4,1.63,26.71,2.04,39.92c0.41,13.21,0.62,24.46,0.62,33.75c0,13.4-0.39,20.99-1.17,22.76
		c-0.99,1.51-2.03,2.41-3.11,2.69c-1.08,0.28-1.88,0.42-2.4,0.42C873.84,158.78,872.74,158.45,871.66,157.8z M842.67,141.33
		c3.89-1.77,7.59-5.81,11.09-12.13c3.5-6.31,7.11-15.37,10.83-27.17c0.43-1.3,0.65-2.4,0.65-3.31c0-0.6-0.09-1.12-0.26-1.56
		c-0.48-1.12-1.82-2.29-4.02-3.5c-2.59-1.47-5.15-2.21-7.65-2.21c-2.03,0-4.04,0.48-6.03,1.43c-4.45,2.16-8.14,6.05-11.06,11.67
		c-2.92,5.62-4.46,12.3-4.64,20.04c0.04,6.7,0.89,11.3,2.53,13.78c1.64,2.49,3.44,3.73,5.38,3.73
		C840.44,142.11,841.5,141.85,842.67,141.33z"/>
	<path d="M908.5,155.27c-2.29-0.99-3.65-3.29-4.09-6.87c-0.26-2.51-0.49-8.6-0.68-18.29c-0.19-9.68-0.31-18.98-0.36-27.89
		c-0.04-8.91-0.06-15.97-0.06-21.21c0-18.2,0.19-28.23,0.58-30.09c1.17-3.16,3.05-4.76,5.64-4.8c2.55,0,4.47,1.58,5.77,4.73
		c0.43,1.9,0.84,7.85,1.23,17.83c0.39,9.99,0.68,20.37,0.88,31.16c0.19,10.79,0.29,19.94,0.29,27.46c0,15.18-0.24,23.48-0.71,24.9
		c-1.34,2.38-3.37,3.57-6.1,3.57C910.07,155.79,909.27,155.62,908.5,155.27z"/>
	<path d="M963.1,194.44c-0.99,0-1.77-0.04-2.33-0.13c-4.84-1.08-9.3-3.04-13.36-5.87c-4.06-2.83-6.1-5.42-6.1-7.75
		c0-2.85,0.71-4.54,2.14-5.06c1.43-0.52,2.53-0.78,3.31-0.78c1.73,0,3.7,0.6,5.9,1.82c4.15,2.25,7.89,3.37,11.22,3.37
		c11.98,0,18.96-14.38,20.95-43.13c0.17-2.42,0.26-4.26,0.26-5.51c0-1.38-0.11-2.08-0.32-2.08c-0.39,0-1.19,1.3-2.4,3.89
		c-4.41,8.6-8.42,13.52-12.03,14.75c-3.61,1.23-6.24,1.85-7.88,1.85c-3.76,0-7.39-1.51-10.89-4.54
		c-5.02-4.37-8.97-11.69-11.87-21.98c-2.81-10.59-4.22-19.82-4.22-27.69c0-8.17,1.4-13.21,4.22-15.11c1.12-0.52,2.16-0.78,3.11-0.78
		c1.3,0,2.49,0.48,3.57,1.43c1.6,1.38,2.4,3.26,2.4,5.64c0,0.52-0.03,1.04-0.1,1.56c-0.06,0.52-0.1,1.19-0.1,2.01
		c0,3.46,0.39,7.98,1.17,13.55c1.43,10.64,3.87,19.2,7.33,25.68c2.12,3.98,3.91,5.97,5.38,5.97c1.43,0,3.04-1.12,4.83-3.37
		c1.79-2.25,3.45-5.21,4.96-8.88c0.43-1.12,0.84-2.08,1.23-2.85l0.91-2.66c0.48-1.3,0.78-2.01,0.91-2.14
		c0.22-0.35,0.32-0.84,0.32-1.49s0.13-1.02,0.39-1.1c0.3-0.3,0.5-0.78,0.58-1.43c0.35-1.47,0.76-2.98,1.23-4.54
		c1.38-4.76,2.9-11.09,4.54-19c1.12-5.71,2.29-9.3,3.5-10.77c1.21-1.47,2.46-2.2,3.76-2.2c0.86,0,1.79,0.24,2.79,0.71
		c5.06,2.46,7.59,16.58,7.59,42.35l-0.06,8.17c-0.3,19.54-2.69,34.7-7.17,45.46c-4.47,10.77-11.42,18.07-20.85,21.92
		c-0.52,0.17-1.54,0.32-3.05,0.45c-1.51,0.13-2.77,0.22-3.76,0.26H963.1z"/>
	<path d="M509.08,316.99c-1.25-0.65-2.25-2.03-2.98-4.15c-0.74-2.12-1.34-5.88-1.82-11.28c-0.48-5.4-0.99-13.4-1.56-24
		c-0.99-18.89-1.49-33.51-1.49-43.84c0-13.7,0.97-21.16,2.92-22.37c0.95-0.6,3.63-1.2,8.04-1.78c4.41-0.58,9.42-1.07,15.05-1.46
		c6.87-0.48,12.36-0.71,16.47-0.71c3.89,0,6.4,0.19,7.52,0.58c2.42,1.17,3.67,2.32,3.76,3.47c0.09,1.15,0.13,1.83,0.13,2.04
		c0,1.9-1.02,3.44-3.05,4.6c-0.99,0.52-2.25,0.87-3.76,1.04c-2.29,0.26-6.64,0.61-13.04,1.04l-15.69,1.04h-0.45
		c-1.56,0-2.69,0.21-3.4,0.62c-0.71,0.41-1.1,1.22-1.17,2.43c-0.06,1.21-0.1,2.18-0.1,2.92c0,1.86,0.09,4.32,0.26,7.39l0.39,9.53
		c0.04,2.68,0.18,4.6,0.42,5.77c0.24,1.17,0.84,1.86,1.82,2.07c0.97,0.22,2.37,0.32,4.18,0.32h4.22c4.28,0.09,7.58,0.3,9.89,0.65
		c2.31,0.35,3.89,0.95,4.73,1.82c0.84,0.87,1.26,2.1,1.26,3.7c0,1.56-0.36,2.72-1.07,3.5c-0.71,0.78-2.17,1.33-4.38,1.65
		c-2.21,0.32-5.49,0.55-9.86,0.68l-10.25,0.39c0.09,8.73,0.39,17.87,0.91,27.4c0.52,9.53,0.78,15.55,0.78,18.06
		c0,2.72-0.3,4.47-0.91,5.25c-0.43,0.56-1.06,1.04-1.88,1.43c-1.12,0.6-2.21,0.91-3.24,0.91
		C510.83,317.7,509.94,317.46,509.08,316.99z"/>
	<path d="M582.94,314.78c-7.35-1.86-12.93-7.11-16.73-15.76c-3.8-8.65-6.12-21.25-6.94-37.81c-0.26-4.45-0.39-8.32-0.39-11.61
		c0-4.71,0.26-8.24,0.78-10.57c0.91-3.98,2.87-6.01,5.9-6.1c0.48-0.09,0.93-0.13,1.36-0.13c1.34,0,2.38,0.37,3.11,1.1
		c0.99,0.91,1.74,3.1,2.24,6.58c0.5,3.48,0.98,8.92,1.46,16.31c0.6,9.34,1.25,16.45,1.95,21.34c0.69,4.89,1.62,8.8,2.79,11.74
		c2.81,7.26,5.2,11.14,7.17,11.64c1.97,0.5,3.21,0.75,3.73,0.75c2.81,0,5.51-1.86,8.11-5.58c3.07-4.37,5.49-10.49,7.26-18.39
		c1.77-7.89,2.66-16.66,2.66-26.3l-0.13-6.81c0-2.12,0.09-3.85,0.26-5.19c0.26-1.99,0.82-3.33,1.69-4.02
		c0.86-0.69,2.16-1.04,3.89-1.04c2.98,0,5.07,1.68,6.26,5.03c1.19,3.35,1.78,8.68,1.78,15.99c0,13.88-1.69,25.55-5.06,35.02
		c-3.29,9.25-7.34,15.68-12.16,19.29c-4.82,3.61-9.61,5.42-14.36,5.42C587.44,315.69,585.23,315.39,582.94,314.78z"/>
	<path d="M644.81,315.82l-1.36-0.45c-1.34-0.35-2.4-1.1-3.18-2.27c-0.78-1.17-1.36-3.36-1.75-6.58c-0.39-3.22-0.65-8.07-0.78-14.56
		c-0.17-8.65-0.26-18.7-0.26-30.16c0-6.49,0.01-11.55,0.03-15.21c0.02-3.65,0.12-6.32,0.29-8.01c0.17-1.69,0.45-2.83,0.84-3.44
		c0.39-0.6,0.95-1.12,1.69-1.56l0.32-0.19c1.17-0.78,2.27-1.17,3.31-1.17c0.91,0,1.75,0.3,2.53,0.91c1.73,1.3,2.85,3.61,3.37,6.94
		c0.22,1.64,0.39,2.76,0.52,3.34c0.13,0.58,0.3,0.88,0.52,0.88c0.3,0,0.8-0.37,1.49-1.1c6.18-5.66,12.75-8.5,19.71-8.5
		c7.65,0,14.59,3.33,20.82,9.99c2.98,3.5,4.47,6.53,4.47,9.08v0.32c-0.13,2.68-0.85,4.12-2.17,4.31c-1.32,0.19-2.11,0.29-2.37,0.29
		c-2.2,0-4.86-1.4-7.98-4.22c-4.32-4.24-8.5-6.36-12.52-6.36c-4.28,0-8.86,2.46-13.75,7.39c-2.38,2.25-4.09,4.35-5.12,6.29
		c-1.04,1.95-1.62,4.32-1.75,7.13c-0.13,2.81-0.19,5.47-0.19,7.98c0,3.2,0.06,7.03,0.19,11.48c0.13,4.89,0.19,8.97,0.19,12.26
		c0,1.95-0.02,3.61-0.06,4.99c-0.13,3.63-0.56,6.04-1.3,7.23c-0.74,1.19-1.97,2-3.7,2.43c-0.74,0.35-1.34,0.52-1.82,0.52H644.81z"/>
</g>
</svg>
