<?xml version="1.0" encoding="utf-8"?>
<!-- Generator: Adobe Illustrator 27.2.0, SVG Export Plug-In . SVG Version: 6.00 Build 0)  -->
<svg version="1.1" id="Layer_1" xmlns="http://www.w3.org/2000/svg" xmlns:xlink="http://www.w3.org/1999/xlink" x="0px" y="0px"
	 viewBox="0 0 1080 310.3" style="enable-background:new 0 0 1080 310.3;" xml:space="preserve">
<style type="text/css">
	.st0{fill:#544900;}
	.st1{fill:#4A3D05;}
	.st2{fill:#4A4305;}
	.st3{fill:#423E21;}
	.st4{fill:#373737;}
	.st5{fill:#3D3405;}
	.st6{fill:#4D3805;}
	.st7{fill:#463905;}
	.st8{fill:#414403;}
	.st9{fill:#413923;}
</style>
<g>
	<g>
		<rect class="st0" width="1080" height="310.3"/>
	</g>
	<g>
		<g>
			<path class="st1" d="M63,159.8c-1.1-1.7-1.6-3.9-1.7-5.9c-0.4-4,0.4-8.6,3.8-10.6c2.7-1.6,6.5-0.7,8.6,1.6c1.5,1.7,2.4,4.1,4.5,5
				c2.4,0.9,5.4-0.8,7.7,0.3c1.8,0.8,2.5,3.1,2,5c-0.5,1.9-2,3.4-3.7,4.2s-3.6,1.3-5.5,1.7C73.3,162.2,67,165.1,63,159.8z"/>
		</g>
		<g>
			<path class="st2" d="M186.4,123.2c1.1,2.6,2.8,4.9,5.2,6.2c2.4,1.3,5.7,1.3,7.8-0.4c2.2-1.7,2.8-5.3,1-7.3
				c-0.9-1-2.1-1.5-3.1-2.3c-1.1-0.7-2.1-1.8-2.1-3.1c0-1.9,2-3.2,2.5-5.1c0.5-1.8-0.7-3.9-2.5-4.6c-1.8-0.7-3.9-0.2-5.3,1
				c-1,0.8-1.8,1.9-2.6,3C184.2,115.2,184.2,117.9,186.4,123.2z"/>
		</g>
		<g>
			<path class="st3" d="M301.1,203.7c3.3,1.4,7.3-0.2,9.1-3.3c1.8-3.1,1.2-7.2-1-9.9c3.8-2.9,9.9-1.3,13.5-4.5
				c2.8-2.4,2.8-7.1,0.6-10.1c-2.2-3-6.2-4.3-9.9-4.1c-6.9,0.4-13.2,6-14.3,12.8c-2.5-0.9-5.3-1.9-7.9-1.1c-2.6,0.8-4.6,4-3.1,6.2
				c2.2,3.2,7.2,0.8,8.9,4.3C298.9,197.4,296,201.5,301.1,203.7z"/>
		</g>
		<g>
			<path class="st4" d="M129.7,267.3c3.4,1.3,5.7,5.7,3.6,8.6c-0.9,1.2-2.4,1.9-3.5,2.9c-1.2,1-2.1,2.6-1.4,4
				c0.6,1.3,2.3,1.6,3.7,1.9c1.4,0.3,3.1,1,3.2,2.5c0.2,2-2.6,2.8-4.5,2.5c-5.1-0.9-9.2-4.4-13.6-7c-4.4-2.7-10.1-4.5-14.5-1.9
				c-1.9,1.1-3.7,3.1-5.9,2.6c-2.4-0.5-3.2-3.9-2.1-6c1.2-2.2,3.5-3.4,5.7-4.5c2.9-1.5,5.8-2.9,8.7-4.4c1.7-0.8,3.4-1.7,5.2-1.9
				c2.4-0.3,4.3,0.9,6.6,0.9C124,267.3,126.6,266.1,129.7,267.3z"/>
		</g>
		<g>
			<path class="st5" d="M835.3,251.5c4.3,1.3,8.9,0.5,13.4,0.7c4.5,0.2,9.6,2.1,10.9,6.4c1.1,3.6-0.9,7.5-3.8,9.8
				c-2.9,2.3-6.7,3.2-10.3,4.1c-3.6,0.9-7.4,1.7-10.5,3.8c-2,1.4-3.7,3.2-5.8,4.5c-4.3,2.7-10.3,2.3-14.3-0.8
				c-2.4-1.9-4.3-5.1-4.6-8.2c-0.5-5.8,1.6-5.5,6.6-6.6c0-4.4-3.4-10.7-0.2-14.7C821.6,244.6,830.1,249.9,835.3,251.5z"/>
		</g>
		<g>
			<path class="st6" d="M976.4,111.4c-0.8-2.9,0.2-6.1,2.1-8.4c1.9-2.3,4.6-3.9,7.4-5c3.8-1.5,8.5-2.9,9.8-6.8
				c0.6-1.8,0.3-3.8,0.3-5.7c0-1.9,0.5-4.1,2.1-5.1c2-1.3,4.8-0.3,6.3,1.6c1.5,1.9,1.9,4.3,2.2,6.7c0.7,4.4,1.4,8.8,2.1,13.3
				C1011.5,118.9,980.3,125.8,976.4,111.4z"/>
		</g>
		<g>
			<path class="st2" d="M462.1,159.8l6,5.9c1.2,1.2,3.3,0.7,3.8-0.9l3.1-9c0.6-1.8-1.1-3.6-3-3l-9.1,3.1
				C461.3,156.5,460.8,158.6,462.1,159.8z"/>
		</g>
		<g>
			<path class="st7" d="M265.6,281.2l7.4,7.3c1.5,1.5,4,0.9,4.7-1.1l3.8-11.1c0.8-2.3-1.4-4.4-3.6-3.7l-11.2,3.8
				C264.7,277.1,264.1,279.7,265.6,281.2z"/>
		</g>
		<g>
			<path class="st8" d="M508.1,65.3l2.7,14.1c0.6,2.9,3.9,4.2,6.3,2.4l13.1-9.7c2.7-2,1.9-6.1-1.3-7l-15.8-4.5
				C510.2,59.9,507.5,62.3,508.1,65.3z"/>
		</g>
		<g>
			<path class="st2" d="M605.2,262.6c1.3-3.1,4-6.1,3.3-9.4c-0.5-2.2-2.5-4.2-2.1-6.4c0.3-1.9,2.3-3,4.1-3.4c4.9-1,10,1.7,13,5.7
				s4.5,8.9,5.7,13.7c0.7,2.9,1.2,6.1-0.4,8.7c-1.3,2-3.6,3.1-5.8,4c-2.5,1-5,2.1-7.7,2.3C607.5,278.6,602.4,269.5,605.2,262.6z"/>
		</g>
		<g>
			<path class="st9" d="M784.2,86.1c-0.2,2.2-0.9,4.3-0.7,6.5c0.3,2.6,2.1,4.9,4.5,5.9s5.3,0.5,7.3-1.1c4.5-3.7,3.2-11.1,6.8-15.6
				c1-1.2,2.3-2.3,2.4-3.8c0.2-1.7-1.1-3.1-2.5-4.2c-5.1-3.9-12.2-5.2-18.4-3.3c-1.1,0.3-2.3,0.8-3.1,1.7c-2.4,2.5,0.3,4.1,1.6,6.1
				C783.7,80.5,784.5,83.3,784.2,86.1z"/>
		</g>
	</g>
</g>
</svg>
