<?xml version="1.0" encoding="utf-8"?>
<!-- Generator: Adobe Illustrator 27.2.0, SVG Export Plug-In . SVG Version: 6.00 Build 0)  -->
<svg version="1.1" id="Layer_1" xmlns="http://www.w3.org/2000/svg" xmlns:xlink="http://www.w3.org/1999/xlink" x="0px" y="0px"
	 viewBox="0 0 48 48" style="enable-background:new 0 0 48 48;" xml:space="preserve">
<style type="text/css">
	.st0{fill:#A20004;}
	.st1{fill:#FFFFFF;}
</style>
<g>
	<path class="st0" d="M48,36c0,6.6-5.4,12-12,12H12C5.4,48,0,42.6,0,36V12C0,5.4,5.4,0,12,0h24c6.6,0,12,5.4,12,12V36z"/>
</g>
<g>
	<polygon class="st1" points="33,26.4 30.7,26.4 30.7,14.1 24.5,24.4 23.4,24.4 17.3,14.1 17.3,26.4 15,26.4 15,9.5 17,9.5 24,21.4 
		31,9.5 33,9.5 	"/>
	<path class="st1" d="M30.4,38.5h2.5l-7.7-17h-2.4l-7.7,17h2.5l1.9-4.2h9L30.4,38.5z M20.3,32.3L24,24l3.7,8.3H20.3z"/>
</g>
</svg>
